{"glyphs":{"0":{"ha":785,"x_min":0,"x_max":0,"o":"m 300 1125 b 168 1086 260 1121 204 1110 b 107 886 101 1044 107 953 l 107 233 b 183 6 107 150 96 54 b 621 14 272 -43 533 -33 b 693 256 703 60 693 176 l 693 883 b 643 1078 693 942 689 1036 b 300 1125 582 1131 381 1133 z m 303 1097 b 451 1099 317 1099 382 1103 b 665 883 636 1088 665 1056 l 665 256 b 607 39 665 189 676 76 b 197 31 528 -6 276 -12 b 135 233 122 71 135 163 l 135 886 b 303 1097 135 1029 142 1081 z m 351 868 b 364 910 353 893 358 906 b 424 914 378 919 407 924 b 450 856 444 904 450 892 l 450 779 l 450 338 b 425 193 450 311 458 206 b 350 332 331 158 350 278 l 350 776 b 351 868 350 813 349 843 z m 324 871 b 322 776 321 844 322 813 l 322 332 b 324 236 322 294 321 263 b 436 168 332 171 372 143 b 478 338 489 188 478 294 l 478 779 l 478 856 b 438 939 478 894 471 922 b 347 932 410 953 369 949 b 324 871 331 919 325 894 z "},"1":{"ha":785,"x_min":0,"x_max":0,"o":"m 508 1113 l 292 1113 l 278 1099 l 278 0 l 292 -14 l 508 -14 l 522 0 l 522 1099 z m 494 1085 l 494 14 l 306 14 l 306 1085 z "},"2":{"ha":785,"x_min":0,"x_max":0,"o":"m 431 217 l 592 458 b 686 754 688 601 686 599 l 686 864 b 610 1089 686 944 690 1040 b 189 1089 517 1144 272 1136 b 114 847 101 1038 114 932 l 114 678 l 128 664 l 339 664 l 353 678 l 353 743 b 367 892 353 767 346 875 b 444 872 394 914 431 901 b 436 703 446 869 447 739 b 340 528 419 643 389 596 l 185 306 b 119 106 129 226 119 196 b 119 0 119 78 119 44 l 133 -14 l 675 -14 l 689 0 l 689 203 l 675 217 z m 393 211 l 404 189 l 661 189 l 661 14 l 147 14 b 147 106 147 51 147 81 b 207 289 147 190 156 215 l 363 511 b 464 694 411 581 447 631 b 469 883 475 733 475 872 b 350 914 447 931 392 947 b 325 743 315 886 325 782 l 325 692 l 142 692 l 142 847 b 203 1064 142 919 128 1021 b 596 1064 278 1108 511 1114 b 658 864 664 1024 658 932 l 658 754 b 569 475 658 604 661 611 z "},"3":{"ha":785,"x_min":0,"x_max":0,"o":"m 690 725 b 690 790 690 744 690 765 l 690 886 b 618 1099 690 963 700 1056 b 183 1094 543 1138 258 1136 b 108 838 97 1046 108 922 l 108 735 l 122 721 l 313 721 l 338 721 l 351 735 l 351 767 b 369 917 351 796 344 894 b 451 893 393 939 442 924 b 446 715 457 878 457 738 b 350 683 428 678 385 683 l 336 669 l 336 519 l 350 506 b 442 490 375 506 422 507 b 461 250 472 464 465 282 b 432 200 457 219 447 207 b 369 201 410 190 383 193 b 346 356 336 221 346 324 l 346 436 l 332 450 l 117 450 l 103 436 l 103 254 b 178 22 103 176 100 69 b 632 22 263 -28 547 -28 b 697 113 671 46 689 72 b 703 275 707 165 703 222 l 703 433 b 624 607 703 514 714 571 b 690 725 676 633 689 671 z m 663 726 b 582 618 661 665 643 640 l 582 592 b 675 433 688 558 675 526 l 675 275 b 675 182 675 239 675 208 b 618 47 674 126 672 79 b 192 47 542 1 268 1 b 131 254 125 86 131 189 l 131 422 l 318 422 l 318 356 b 356 176 318 308 306 207 b 443 175 376 164 414 161 b 489 247 469 188 483 210 b 485 454 497 307 496 393 b 364 533 471 529 431 533 l 364 656 b 471 704 408 656 447 657 b 476 901 486 733 483 882 b 350 936 461 951 390 972 b 324 767 315 906 324 810 l 324 749 l 313 749 l 136 749 l 136 838 b 197 1069 136 908 124 1029 b 604 1074 264 1107 538 1108 b 663 886 674 1039 663 950 l 663 790 b 663 726 663 767 663 744 z "},"4":{"ha":785,"x_min":0,"x_max":0,"o":"m 75 461 l 75 264 l 89 250 l 415 250 l 415 0 l 429 -14 l 644 -14 l 658 0 l 658 250 l 711 250 l 725 264 l 725 458 l 711 472 l 658 472 l 658 1096 l 644 1110 l 447 1110 l 435 1103 l 76 468 z m 103 457 l 456 1082 l 631 1082 l 631 458 l 644 444 l 697 444 l 697 278 l 644 278 l 631 264 l 631 14 l 443 14 l 443 264 l 429 278 l 103 278 z m 319 472 l 415 668 l 415 472 z m 285 464 l 297 444 l 429 444 l 443 458 l 443 728 l 417 733 z "},"5":{"ha":785,"x_min":0,"x_max":0,"o":"m 665 1119 l 117 1119 l 103 1106 l 103 493 l 117 479 l 328 479 l 340 486 b 371 528 349 501 356 517 b 421 528 378 532 414 532 b 447 453 449 510 447 481 b 447 403 447 439 447 422 l 447 343 b 447 271 447 314 447 290 b 426 200 446 250 449 211 b 367 196 415 193 375 190 b 346 335 336 213 346 308 l 346 378 l 332 392 l 111 392 l 97 378 l 97 250 b 174 18 97 167 89 69 b 621 18 264 -36 524 -32 b 696 235 707 64 696 154 l 696 544 b 653 706 696 600 699 665 b 343 733 592 758 411 750 l 343 907 l 665 907 l 679 921 l 679 1106 z m 651 1092 l 651 935 l 329 935 l 315 921 l 315 714 l 335 701 b 633 683 374 719 578 733 b 668 544 671 651 668 590 l 668 235 b 607 43 668 167 681 81 b 188 43 518 -4 269 -7 b 125 250 115 86 125 178 l 125 364 l 318 364 l 318 335 b 353 171 318 290 306 199 b 440 175 372 160 424 167 b 471 225 458 185 467 199 b 475 343 476 263 475 304 l 475 403 b 475 453 475 422 475 439 b 438 550 475 492 474 526 b 354 550 419 563 369 560 b 319 507 339 538 329 524 l 131 507 l 131 1092 z "},"6":{"ha":785,"x_min":0,"x_max":0,"o":"m 696 783 l 696 868 b 621 1097 696 953 708 1046 b 176 1097 536 1146 263 1144 b 100 897 101 1057 100 971 l 100 225 b 176 18 100 147 97 67 b 618 14 264 -35 536 -32 b 700 254 708 65 700 168 l 700 533 b 656 689 700 588 704 650 b 346 718 606 728 418 728 l 346 767 b 369 918 346 799 338 896 b 426 921 388 929 415 928 b 451 783 461 903 451 814 l 465 769 l 682 769 z m 668 797 l 479 797 b 440 946 479 842 488 919 b 356 940 421 956 382 958 b 318 767 308 910 318 814 l 318 701 l 335 688 b 639 667 389 700 596 701 b 672 533 678 636 672 578 l 672 254 b 604 39 672 179 682 82 b 190 43 531 -3 269 -6 b 128 225 124 83 128 158 l 128 897 b 190 1072 128 958 126 1038 b 607 1072 268 1115 531 1117 b 668 868 681 1029 668 940 z m 350 463 b 371 514 353 490 360 507 b 426 517 382 521 411 526 b 451 376 461 496 451 408 l 451 343 b 450 231 451 289 453 254 b 429 196 447 210 442 201 b 371 196 415 188 388 186 b 349 251 356 204 349 214 l 349 369 b 350 463 349 403 347 436 z m 322 467 b 321 369 319 438 321 404 l 321 251 b 357 171 321 211 328 188 b 476 226 404 144 468 165 b 479 343 479 250 479 286 l 479 376 b 440 542 479 425 490 511 b 354 536 414 557 372 549 b 322 467 333 522 325 494 z "},"7":{"ha":785,"x_min":0,"x_max":0,"o":"m 675 1107 l 126 1107 l 113 1093 l 113 908 l 126 894 l 415 894 l 125 4 l 139 -14 l 367 -14 l 379 -4 l 688 904 l 689 908 l 689 1093 z m 661 1079 l 661 911 l 357 14 l 158 14 l 449 904 l 435 922 l 140 922 l 140 1079 z "},"8":{"ha":785,"x_min":0,"x_max":0,"o":"m 694 725 b 694 781 694 742 694 760 l 694 864 b 619 1099 694 949 708 1047 b 175 1099 526 1151 268 1151 b 96 864 88 1049 96 949 l 96 788 b 156 608 96 717 86 656 b 94 471 92 571 94 533 l 94 249 b 169 15 94 171 92 63 b 631 18 265 -43 535 -35 b 704 249 707 61 704 175 l 704 490 b 638 613 704 561 690 586 b 694 725 683 640 694 675 z m 667 725 b 601 624 665 672 653 649 l 601 599 b 676 490 667 569 676 558 l 676 249 b 617 43 676 188 681 78 b 183 40 529 -6 269 -12 b 122 249 118 79 122 183 l 122 471 b 189 594 122 535 118 561 l 190 619 b 124 788 113 661 124 715 l 124 864 b 189 1074 124 936 114 1032 b 606 1074 274 1122 521 1122 b 667 864 681 1031 667 936 l 667 781 b 667 725 667 760 667 742 z m 347 885 b 365 918 350 901 356 911 b 421 922 369 922 411 926 b 447 883 438 915 447 910 l 447 738 b 346 715 447 668 353 675 l 346 822 b 347 885 346 846 344 868 z m 321 889 b 318 822 318 871 318 849 l 318 714 l 318 713 b 475 738 318 638 475 632 l 475 883 b 432 947 475 926 454 939 b 349 940 417 954 365 953 b 321 889 331 928 324 910 z m 346 460 b 371 497 349 478 356 489 b 431 497 381 503 419 504 b 454 438 447 488 454 474 l 454 314 b 451 232 454 275 454 250 b 371 194 446 192 406 179 b 344 246 357 200 344 210 l 344 375 b 344 424 344 393 344 410 b 346 460 344 438 344 449 z m 318 464 b 317 424 317 453 317 439 b 317 375 317 410 317 393 l 317 246 b 360 169 317 201 333 179 b 454 179 386 160 432 158 b 482 314 490 211 482 271 l 482 438 b 444 522 482 476 475 504 b 357 522 425 533 375 532 b 318 464 332 508 322 489 z "},"9":{"ha":785,"x_min":0,"x_max":0,"o":"m 107 332 l 107 265 b 176 13 107 183 93 63 b 622 13 265 -40 536 -35 b 696 201 694 53 696 131 l 696 890 b 622 1097 696 968 703 1051 b 176 1097 531 1149 263 1147 b 103 868 94 1049 103 949 l 103 556 b 156 413 103 521 104 450 b 451 390 222 364 376 375 l 451 336 l 451 256 b 431 194 451 208 449 203 b 369 189 421 189 381 186 b 350 254 347 203 350 232 l 350 294 l 350 332 l 336 346 l 121 346 z m 135 318 l 322 318 l 322 294 l 322 254 b 357 164 322 219 319 182 l 358 164 b 444 169 376 156 426 160 b 479 256 476 188 479 208 l 479 336 l 479 408 l 461 422 b 172 435 394 404 233 390 b 131 556 133 463 131 518 l 131 868 b 190 1072 131 936 121 1032 b 608 1072 268 1118 525 1119 b 668 890 678 1033 668 957 l 668 201 b 608 38 668 143 669 71 b 190 38 531 -6 271 -11 b 135 265 121 78 135 196 z m 351 882 b 429 918 357 925 392 935 b 453 782 460 904 453 808 l 453 740 b 429 600 453 711 463 617 b 351 632 396 583 357 592 b 350 735 349 653 350 685 l 350 776 b 351 882 350 828 349 861 z m 324 886 b 322 776 321 863 322 831 l 322 735 b 324 628 322 682 321 650 b 440 575 332 569 392 550 b 481 740 492 601 481 694 l 481 782 b 440 943 481 825 490 921 b 324 886 386 968 331 947 z "}," ":{"ha":335,"x_min":0,"x_max":0,"o":""},"!":{"ha":339,"x_min":0,"x_max":0,"o":"m 75 1075 l 75 235 l 89 221 l 265 221 l 279 235 l 279 1075 l 265 1089 l 89 1089 z m 103 1061 l 251 1061 l 251 249 l 103 249 z m 74 188 l 74 0 l 88 -14 l 268 -14 l 282 0 l 282 188 l 268 201 l 88 201 z m 101 174 l 254 174 l 254 14 l 101 14 z "},"$":{"ha":725,"x_min":0,"x_max":0,"o":"m 325 213 b 318 260 321 224 318 239 l 318 343 l 318 424 l 304 438 l 90 438 l 76 424 l 76 375 l 76 247 b 328 -19 76 24 136 -8 l 328 -65 l 342 -79 l 406 -79 l 419 -65 l 419 -21 b 500 -11 440 -19 469 -17 b 665 225 658 17 665 90 l 665 443 b 661 535 665 468 665 501 b 414 696 642 665 532 694 l 414 899 b 422 793 424 886 422 808 b 422 749 422 778 422 749 l 436 735 l 651 735 l 665 749 l 665 846 b 626 1056 665 908 676 1007 b 417 1121 579 1101 471 1118 l 417 1181 l 403 1194 l 339 1194 l 325 1181 l 325 1124 b 136 1075 250 1122 183 1118 b 75 878 88 1032 75 940 l 75 710 b 325 472 75 483 149 486 z m 353 1167 l 389 1167 l 389 1107 l 403 1093 b 607 1036 449 1093 564 1078 b 638 846 647 996 638 897 l 638 763 l 450 763 b 449 853 450 793 449 822 b 400 931 447 886 447 932 l 386 917 l 386 682 l 400 668 b 603 608 440 668 547 667 b 638 443 640 568 638 494 l 638 225 b 638 176 638 210 638 193 b 404 6 633 18 533 18 l 392 -8 l 392 -51 l 356 -51 l 356 -7 l 343 7 b 104 247 150 18 104 38 l 104 375 l 104 410 l 290 410 l 290 343 l 290 260 b 339 172 290 229 296 172 l 353 186 l 353 485 l 340 499 b 153 532 292 503 194 504 b 103 710 121 554 103 599 l 103 878 b 111 960 103 889 104 922 b 339 1096 138 1093 217 1094 l 353 1110 z m 322 883 l 324 886 l 324 726 l 322 732 b 317 801 317 751 317 778 b 322 883 317 842 318 867 z m 296 890 b 289 801 290 871 289 840 b 338 679 289 769 288 679 l 351 693 l 351 914 l 338 928 b 296 890 314 926 301 913 z m 418 213 l 418 442 b 422 400 421 435 422 422 l 422 261 b 418 213 422 238 421 222 z m 390 189 l 406 175 b 450 261 451 179 450 226 l 450 400 b 406 481 450 449 442 478 l 390 467 z "},"%":{"ha":1044,"x_min":0,"x_max":0,"o":"m 579 1174 l 397 3 l 411 -14 l 456 -14 l 469 -3 l 653 1168 l 639 1185 l 593 1185 z m 606 1157 l 622 1157 l 443 14 l 428 14 z m 561 560 b 561 497 560 540 561 519 l 561 254 b 615 57 561 190 551 97 b 921 56 657 29 879 33 b 983 249 992 94 983 181 l 983 492 b 942 676 983 554 989 626 b 664 701 897 725 696 711 b 561 560 589 678 564 631 z m 589 558 b 672 674 592 618 608 654 b 922 657 706 683 889 692 b 956 492 961 615 956 544 l 956 249 b 907 81 956 193 965 113 b 629 79 874 61 663 57 b 589 254 581 111 589 203 l 589 497 b 589 558 589 518 589 539 z m 739 518 b 757 561 742 542 749 554 l 760 561 b 792 561 763 565 790 563 b 808 431 814 539 808 458 l 808 315 l 808 240 b 806 201 808 224 808 211 b 751 183 799 179 768 172 b 738 310 731 199 738 290 l 738 428 b 739 518 738 464 736 494 z m 711 521 b 710 428 708 496 710 464 l 710 310 b 735 161 710 274 700 186 b 801 157 754 147 789 151 b 836 240 835 174 836 208 l 836 315 l 836 431 b 811 581 836 471 843 549 b 742 583 801 590 758 596 b 711 521 722 569 714 547 z m 75 1057 b 75 994 74 1038 75 1017 l 75 753 b 128 556 75 690 65 594 b 435 554 171 528 393 532 b 497 746 506 593 497 678 l 497 990 b 456 1174 497 1053 503 1124 b 178 1199 411 1222 211 1208 b 75 1057 103 1175 78 1128 z m 103 1056 b 186 1171 106 1115 122 1151 b 436 1154 221 1181 403 1189 b 469 990 475 1111 469 1044 l 469 746 b 421 579 469 690 479 611 b 142 578 388 560 176 556 b 103 753 93 608 103 704 l 103 994 b 103 1056 103 1015 103 1036 z m 307 1058 b 322 929 328 1036 322 956 l 322 814 l 322 739 b 319 700 322 722 322 710 b 265 682 313 678 281 669 b 251 807 244 697 251 788 l 251 926 b 253 1017 251 961 250 992 b 307 1058 257 1053 271 1071 z m 225 1019 b 224 926 222 994 224 963 l 224 807 b 249 660 224 771 214 686 b 315 656 268 644 304 650 b 350 739 349 671 350 708 l 350 814 l 350 929 b 310 1086 350 965 360 1076 b 225 1019 257 1097 232 1075 z "},"&":{"ha":722,"x_min":0,"x_max":0,"o":"m 639 714 l 639 860 b 560 1090 639 935 636 1049 b 146 1088 469 1139 221 1131 b 75 794 61 1038 75 876 l 75 692 b 113 561 75 626 78 610 b 58 425 54 522 58 485 l 58 238 b 150 3 58 150 53 47 b 613 36 242 -39 522 -42 l 714 -47 l 736 -36 l 736 232 l 732 242 l 651 322 l 651 611 l 638 625 l 431 625 l 417 611 l 417 581 b 311 876 297 701 301 724 b 335 926 313 903 315 917 b 374 926 347 932 368 931 b 397 774 403 904 397 806 l 397 714 l 411 700 l 625 700 z m 611 728 l 425 728 l 425 774 b 390 949 425 819 431 917 b 324 951 374 961 342 960 b 283 879 288 935 285 906 b 421 538 271 700 278 678 l 444 547 l 444 597 l 624 597 l 624 317 l 628 307 l 708 226 l 708 -7 l 621 65 l 603 64 b 161 28 535 -10 253 -14 b 86 238 78 67 86 163 l 86 425 b 140 544 86 483 81 511 l 144 565 b 103 692 107 617 103 622 l 103 794 b 160 1063 103 864 89 1022 b 546 1065 226 1101 464 1110 b 611 860 610 1032 611 922 z m 404 189 b 331 163 399 160 354 149 b 304 317 297 182 304 283 l 304 335 l 406 232 b 404 189 406 218 407 203 z m 432 183 b 433 238 436 201 433 219 l 429 247 l 300 379 l 276 369 l 276 317 b 317 138 276 269 268 167 b 432 183 357 114 422 136 z "},"’":{"ha":332,"x_min":0,"x_max":0,"o":"m 178 810 l 278 1096 l 265 1114 l 131 1114 l 117 1103 l 68 817 l 82 800 l 165 800 z m 156 828 l 99 828 l 142 1086 l 246 1086 z "},"(":{"ha":385,"x_min":0,"x_max":0,"o":"m 75 867 l 75 214 b 168 -3 75 126 72 44 b 390 -29 203 -21 304 -29 l 404 -15 l 404 161 l 392 175 b 331 196 346 179 335 186 b 325 288 322 214 325 268 l 325 794 b 325 853 325 818 325 838 b 392 907 326 900 342 903 l 404 921 l 404 1096 l 390 1110 b 168 1083 304 1110 203 1101 b 75 867 72 1036 75 954 z m 103 867 b 179 1058 103 943 97 1017 b 376 1082 207 1072 293 1081 l 376 933 b 297 794 282 922 297 867 l 297 288 b 376 149 297 215 281 158 l 376 -1 b 179 22 292 0 207 8 b 103 214 97 64 103 138 z "},")":{"ha":385,"x_min":0,"x_max":0,"o":"m 325 214 l 325 867 b 232 1083 325 954 328 1036 b 10 1110 197 1101 96 1110 l -4 1096 l -4 921 l 8 907 b 69 885 54 903 65 896 b 75 794 78 867 75 814 l 75 288 b 75 228 75 264 75 244 b 8 175 74 182 58 179 l -4 161 l -4 -15 l 10 -29 b 232 -3 96 -29 197 -21 b 325 214 328 44 325 126 z m 297 214 b 221 22 297 138 303 64 b 24 -1 193 8 108 0 l 24 149 b 103 288 119 158 103 215 l 103 794 b 24 933 103 867 118 922 l 24 1082 b 221 1058 107 1081 193 1072 b 297 867 303 1017 297 943 z "},"*":{"ha":364,"x_min":0,"x_max":0,"o":"m 150 1032 l 150 990 l 110 1010 l 92 1003 l 69 958 l 75 940 l 115 921 l 74 890 l 71 871 l 97 832 l 115 828 l 150 849 l 150 811 l 164 797 l 215 797 l 229 811 l 229 846 l 265 826 l 285 832 l 310 878 l 304 897 l 265 921 l 300 942 l 306 961 l 281 1006 l 261 1011 l 226 992 l 226 1032 l 213 1046 l 164 1046 z m 178 1018 l 199 1018 l 199 968 l 219 956 l 263 979 l 275 958 l 232 933 l 232 908 l 279 879 l 267 857 l 222 881 l 201 868 l 201 825 l 178 825 l 178 872 l 157 885 l 113 858 l 101 876 l 150 911 l 149 935 l 100 958 l 111 979 l 158 956 l 178 968 z "},",":{"ha":338,"x_min":0,"x_max":0,"o":"m 75 183 l 75 0 l 89 -14 l 131 -14 l 68 -126 l 81 -147 l 175 -147 l 186 -140 l 275 -4 l 278 3 l 278 183 l 264 197 l 89 197 z m 103 169 l 250 169 l 250 7 l 168 -119 l 104 -119 l 167 -7 l 154 14 l 103 14 z "},"-":{"ha":539,"x_min":0,"x_max":0,"o":"m 75 656 l 75 500 l 89 486 l 464 486 l 478 500 l 478 656 l 464 669 l 89 669 z m 103 642 l 450 642 l 450 514 l 103 514 z "},".":{"ha":339,"x_min":0,"x_max":0,"o":"m 75 193 l 75 0 l 89 -14 l 265 -14 l 279 0 l 279 193 l 265 207 l 89 207 z m 103 179 l 251 179 l 251 14 l 103 14 z "},"/":{"ha":360,"x_min":0,"x_max":0,"o":"m 293 1107 l 249 1107 l 235 1096 l 68 3 l 82 -14 l 125 -14 l 139 -3 l 307 1090 z m 276 1079 l 113 14 l 99 14 l 261 1079 z "},":":{"ha":338,"x_min":0,"x_max":0,"o":"m 264 481 l 89 481 l 75 467 l 75 283 l 89 269 l 264 269 l 278 283 l 278 467 z m 250 453 l 250 297 l 103 297 l 103 453 z m 264 197 l 89 197 l 75 183 l 75 0 l 89 -14 l 264 -14 l 278 0 l 278 183 z m 250 169 l 250 14 l 103 14 l 103 169 z "},";":{"ha":338,"x_min":0,"x_max":0,"o":"m 264 481 l 89 481 l 75 467 l 75 283 l 89 269 l 264 269 l 278 283 l 278 467 z m 250 453 l 250 297 l 103 297 l 103 453 z m 75 183 l 75 0 l 89 -14 l 131 -14 l 68 -126 l 81 -147 l 175 -147 l 186 -140 l 275 -4 l 278 3 l 278 183 l 264 197 l 89 197 z m 103 169 l 250 169 l 250 7 l 168 -119 l 104 -119 l 167 -7 l 154 14 l 103 14 z "},"?":{"ha":725,"x_min":0,"x_max":0,"o":"m 486 422 b 665 608 635 426 665 474 l 665 843 b 593 1071 665 915 668 1029 b 154 1074 515 1113 238 1119 b 75 836 72 1028 75 917 l 75 669 l 89 656 l 301 656 l 315 669 l 315 749 b 324 869 315 789 313 831 b 417 871 338 922 406 907 b 413 633 426 843 421 646 b 257 599 389 600 339 599 l 243 585 l 243 547 l 243 247 l 257 233 l 472 233 l 486 247 l 486 268 z m 472 450 l 458 436 l 458 268 l 458 261 l 271 261 l 271 547 l 271 571 b 435 617 324 571 401 568 b 444 879 451 640 454 849 b 392 928 436 901 419 921 b 288 749 276 960 288 815 l 288 683 l 103 683 l 103 836 b 168 1049 103 904 99 1010 b 579 1046 242 1089 510 1085 b 638 843 640 1013 638 903 l 638 608 b 589 468 638 560 639 496 b 472 450 571 457 521 450 z m 242 188 l 242 0 l 256 -14 l 472 -14 l 486 0 l 486 188 l 472 201 l 256 201 z m 269 174 l 458 174 l 458 14 l 269 14 z "},"A":{"ha":696,"x_min":0,"x_max":0,"o":"m 189 1100 l 22 1 l 36 -14 l 256 -14 l 269 -1 l 300 247 l 401 247 l 425 -1 l 439 -14 l 672 -14 l 686 1 l 521 1100 l 507 1113 l 203 1113 z m 215 1085 l 494 1085 l 656 14 l 451 14 l 428 263 l 414 275 l 288 275 l 274 263 l 243 14 l 53 14 z m 353 743 l 381 465 l 324 465 z m 294 453 l 308 438 l 396 438 l 410 453 l 375 806 l 369 947 l 342 949 l 332 806 z "},"B":{"ha":731,"x_min":0,"x_max":0,"o":"m 75 1097 l 75 1076 l 75 0 l 89 -14 l 428 -14 b 633 25 486 -14 588 -19 b 682 229 678 68 682 171 l 682 371 b 683 436 682 393 683 415 b 607 579 683 499 671 550 b 669 782 679 626 669 708 l 669 846 b 665 978 669 894 671 940 b 419 1111 646 1126 536 1111 l 89 1111 z m 103 1083 l 419 1083 b 603 1057 463 1083 568 1089 b 642 846 650 1013 642 904 l 642 782 b 567 590 642 707 654 625 l 568 564 b 656 436 642 543 656 503 b 654 371 656 415 654 393 l 654 229 b 614 44 654 179 651 81 b 428 14 578 10 475 14 l 103 14 l 103 1076 z m 326 900 l 326 907 b 419 839 379 907 419 910 l 419 763 b 326 690 419 696 385 690 z m 299 900 l 299 676 l 313 663 b 447 763 383 663 447 667 l 447 839 b 313 935 447 938 383 935 l 299 921 z m 333 197 l 333 451 b 426 396 376 451 426 453 l 426 260 b 333 197 426 188 386 196 z m 306 183 l 319 169 b 454 260 390 169 454 158 l 454 396 b 319 479 454 481 379 479 l 306 465 z "},"C":{"ha":719,"x_min":0,"x_max":0,"o":"m 660 654 l 660 840 b 588 1090 660 924 672 1039 b 150 1090 504 1140 215 1129 b 75 867 67 1040 75 949 l 75 213 b 153 10 75 138 75 53 b 596 18 228 -32 504 -32 b 660 114 635 39 651 71 b 665 278 669 167 665 224 l 665 456 l 651 469 l 435 469 l 421 456 l 421 343 b 400 199 421 318 428 217 b 344 196 389 192 360 189 b 313 335 304 217 313 297 l 313 781 b 333 915 313 811 304 892 b 390 917 344 925 376 924 b 415 765 425 899 415 796 l 415 654 l 429 640 l 646 640 z m 632 668 l 443 668 l 443 765 b 401 942 443 813 456 915 b 317 938 383 950 339 956 b 285 781 276 904 285 826 l 285 335 b 333 171 285 282 276 199 b 417 176 357 158 396 163 b 449 343 457 204 449 301 l 449 442 l 638 442 l 638 278 b 638 186 638 243 638 214 b 582 43 636 135 636 72 b 167 35 499 -3 233 -3 b 103 213 100 71 103 149 l 103 867 b 164 1065 103 936 93 1024 b 574 1065 221 1100 499 1110 b 632 840 644 1024 632 911 z "},"D":{"ha":731,"x_min":0,"x_max":0,"o":"m 75 1096 l 75 0 l 89 -14 l 388 -14 b 669 215 588 -14 669 -8 l 669 888 b 425 1110 669 1090 635 1110 l 89 1110 z m 103 1082 l 425 1082 b 603 1056 469 1082 568 1086 b 642 888 647 1018 642 940 l 642 215 b 601 50 642 165 640 88 b 388 14 558 8 444 14 l 103 14 z m 324 196 l 324 908 b 413 893 344 908 396 910 b 428 776 431 874 428 803 l 428 328 b 428 278 428 310 428 293 b 324 196 426 186 399 196 z m 296 182 l 310 168 b 374 168 338 168 358 168 b 456 328 469 172 456 261 l 456 776 b 310 936 456 911 451 940 l 296 922 z "},"E":{"ha":653,"x_min":0,"x_max":0,"o":"m 75 1096 l 75 0 l 89 -14 l 596 -14 l 610 0 l 610 196 l 596 210 l 318 210 l 318 458 l 318 464 l 550 464 l 564 478 l 564 506 l 564 679 l 550 693 l 513 693 l 318 693 l 318 900 l 578 900 l 592 914 l 592 1096 l 578 1110 l 89 1110 z m 103 1082 l 564 1082 l 564 928 l 304 928 l 290 914 l 290 679 l 304 665 l 513 665 l 536 665 l 536 506 l 536 492 l 304 492 l 290 478 l 290 458 l 290 196 l 304 182 l 582 182 l 582 14 l 103 14 z "},"F":{"ha":658,"x_min":0,"x_max":0,"o":"m 75 1097 l 75 0 l 89 -14 l 310 -14 l 324 0 l 324 465 l 540 465 l 554 479 l 554 517 l 554 681 l 540 694 l 322 694 l 322 900 l 585 900 l 599 914 l 599 1075 l 599 1097 l 585 1111 l 89 1111 z m 103 1083 l 571 1083 l 571 1075 l 571 928 l 308 928 l 294 914 l 294 681 l 308 667 l 526 667 l 526 517 l 526 493 l 310 493 l 296 479 l 296 14 l 103 14 z "},"G":{"ha":728,"x_min":0,"x_max":0,"o":"m 425 376 l 425 324 b 401 176 425 294 432 193 b 344 176 389 168 361 167 b 317 304 314 193 317 274 l 317 776 b 318 867 317 813 315 843 b 399 910 325 911 356 932 b 422 847 425 896 422 872 l 422 767 l 422 672 l 436 658 l 651 658 l 665 672 l 665 867 b 590 1097 665 949 675 1050 b 153 1090 504 1144 242 1136 b 75 875 68 1046 75 954 l 75 189 b 86 82 75 153 75 115 b 500 17 135 -60 404 -58 l 504 -4 l 518 -14 l 653 -14 l 667 0 l 667 582 l 653 596 l 357 596 l 343 582 l 343 390 l 357 376 z m 638 686 l 450 686 l 450 767 l 450 847 b 446 894 450 863 450 879 b 324 933 433 942 363 961 b 289 776 279 901 289 822 l 289 304 b 331 151 289 261 286 176 b 415 151 356 138 394 139 b 453 324 461 179 453 279 l 453 390 l 439 404 l 429 404 l 371 404 l 371 568 l 639 568 l 639 14 l 529 14 l 521 46 l 497 51 b 189 17 431 -19 268 -15 b 103 189 104 50 103 114 l 103 875 b 167 1065 103 942 94 1028 b 576 1072 247 1108 500 1115 b 638 867 649 1032 638 936 z "},"H":{"ha":735,"x_min":0,"x_max":0,"o":"m 75 1097 l 75 0 l 89 -14 l 304 -14 l 318 0 l 318 469 l 432 469 l 432 0 l 446 -14 l 660 -14 l 674 0 l 674 1097 l 660 1111 l 446 1111 l 432 1097 l 432 694 l 318 694 l 318 710 l 318 1097 l 304 1111 l 89 1111 z m 103 1083 l 290 1083 l 290 710 l 290 681 l 304 667 l 446 667 l 460 681 l 460 1083 l 646 1083 l 646 14 l 460 14 l 460 483 l 446 497 l 304 497 l 290 483 l 290 14 l 103 14 z "},"I":{"ha":374,"x_min":0,"x_max":0,"o":"m 299 1114 l 89 1114 l 75 1100 l 75 0 l 89 -14 l 299 -14 l 313 0 l 313 1100 z m 285 1086 l 285 14 l 103 14 l 103 1086 z "},"J":{"ha":715,"x_min":0,"x_max":0,"o":"m 640 1104 l 422 1104 l 408 1090 l 408 321 b 406 235 408 290 410 260 b 344 188 401 203 382 171 b 326 329 322 204 326 304 l 326 465 l 313 479 l 271 479 l 89 479 l 75 465 l 75 244 b 158 3 75 160 69 51 b 581 3 250 -47 500 -44 b 654 222 665 53 654 140 l 654 1090 z m 626 1076 l 626 222 b 567 28 626 151 639 69 b 172 28 494 -15 256 -18 b 103 244 96 69 103 171 l 103 451 l 271 451 l 299 451 l 299 329 b 331 163 299 289 292 189 b 394 163 349 154 379 154 b 436 321 444 192 436 274 l 436 1076 z "},"K":{"ha":736,"x_min":0,"x_max":0,"o":"m 299 1111 l 89 1111 l 75 1097 l 75 0 l 89 -14 l 303 -14 l 317 0 l 317 340 l 454 -6 l 467 -14 l 729 -14 l 742 6 l 474 599 l 697 1092 l 685 1111 l 467 1111 l 454 1103 l 313 799 l 313 1097 z m 285 1083 l 285 736 l 311 731 l 475 1083 l 663 1083 l 446 604 l 446 593 l 708 14 l 476 14 l 315 418 l 289 413 l 289 14 l 103 14 l 103 1083 z "},"L":{"ha":633,"x_min":0,"x_max":0,"o":"m 314 1110 l 89 1110 l 75 1096 l 75 0 l 89 -14 l 567 -14 l 581 0 l 581 196 l 567 210 l 328 210 l 328 1096 z m 300 1082 l 300 196 l 314 182 l 553 182 l 553 14 l 103 14 l 103 1082 z "},"M":{"ha":889,"x_min":0,"x_max":0,"o":"m 451 624 l 385 1100 l 371 1113 l 89 1113 l 75 1099 l 75 0 l 89 -14 l 286 -14 l 300 -1 b 300 474 307 78 303 314 l 367 -1 l 381 -14 l 524 -14 l 538 -1 l 604 476 b 604 -1 601 315 599 76 l 618 -14 l 815 -14 l 829 0 l 829 1099 l 815 1113 l 533 1113 l 519 1100 z m 631 14 b 636 631 624 154 636 631 l 643 790 l 615 792 l 592 583 l 511 14 l 393 14 l 313 583 l 289 792 l 261 790 l 268 631 b 274 14 268 619 282 154 l 103 14 l 103 1085 l 358 1085 l 428 597 l 436 475 l 464 475 l 476 597 l 546 1085 l 801 1085 l 801 14 z "},"N":{"ha":732,"x_min":0,"x_max":0,"o":"m 447 665 l 342 1100 l 328 1111 l 89 1111 l 75 1097 l 75 0 l 89 -14 l 290 -14 l 304 -1 b 299 431 313 115 304 318 l 403 -3 l 417 -14 l 657 -14 l 671 0 l 671 1097 l 657 1111 l 457 1111 l 443 1099 b 447 665 433 982 442 778 z m 428 14 l 315 483 l 289 650 l 261 647 l 267 511 b 278 14 267 511 288 185 l 103 14 l 103 1083 l 317 1083 l 431 614 l 457 447 l 485 450 l 479 586 b 469 1083 479 586 458 913 l 643 1083 l 643 14 z "},"O":{"ha":731,"x_min":0,"x_max":0,"o":"m 276 1128 b 146 1089 239 1124 182 1113 b 75 876 63 1038 75 960 l 75 249 b 154 10 75 167 72 57 b 594 15 233 -35 506 -31 b 669 231 681 60 669 150 l 669 888 b 614 1082 669 949 665 1038 b 276 1128 549 1138 333 1133 z m 279 1100 b 597 1060 340 1106 542 1107 b 642 888 639 1024 642 939 l 642 231 b 581 40 642 163 653 78 b 168 35 500 -3 238 -6 b 103 249 99 75 103 179 l 103 876 b 108 996 103 915 100 958 b 279 1100 126 1072 214 1093 z m 322 875 b 338 913 324 897 329 907 b 399 914 350 919 382 924 b 424 779 433 896 424 810 l 424 342 b 424 275 424 315 424 293 b 397 200 424 249 428 213 b 322 336 304 164 322 285 l 322 774 b 322 875 322 819 319 851 z m 296 878 b 294 774 293 853 294 819 l 294 336 b 296 240 294 299 293 265 b 408 175 303 178 347 151 b 451 275 453 192 451 235 b 451 342 451 293 451 315 l 451 779 b 413 939 451 825 463 913 b 324 935 385 954 342 947 b 296 878 304 922 297 903 z "},"P":{"ha":736,"x_min":0,"x_max":0,"o":"m 414 1114 l 89 1114 l 75 1100 l 75 0 l 89 -14 l 310 -14 l 324 0 l 324 419 l 400 419 b 511 422 428 419 469 418 b 675 678 665 440 675 540 l 675 861 b 625 1076 675 924 675 1031 b 414 1114 582 1117 469 1114 z m 414 1086 b 606 1057 460 1086 572 1088 b 647 861 647 1018 647 914 l 647 678 b 604 488 647 592 644 529 b 400 447 558 442 460 447 l 310 447 l 296 433 l 296 14 l 103 14 l 103 1086 z m 325 628 l 325 904 b 363 904 339 904 351 904 b 424 860 394 903 424 900 l 424 661 b 397 632 424 643 415 636 b 325 628 374 628 349 628 z m 297 614 l 311 600 b 451 661 358 601 451 588 l 451 860 b 311 932 451 942 367 932 l 297 918 z "},"Q":{"ha":731,"x_min":0,"x_max":0,"o":"m 382 -26 b 425 -196 382 -97 383 -162 b 679 -197 474 -236 628 -224 l 686 -185 l 686 -28 l 667 -15 b 553 -11 640 -26 567 -54 b 669 181 656 1 669 118 l 669 872 b 594 1094 669 954 679 1044 b 153 1094 517 1139 224 1136 b 75 857 63 1040 75 946 l 75 196 b 119 38 75 131 75 79 b 382 -26 171 -12 318 -25 z m 535 15 l 522 -3 b 526 -19 524 -8 525 -15 b 658 -49 546 -78 614 -64 l 658 -176 b 442 -174 606 -197 476 -203 b 410 -25 414 -150 410 -101 l 410 -12 l 396 1 b 139 57 339 1 185 13 b 103 196 104 90 103 128 l 103 857 b 167 1069 103 933 89 1024 b 581 1069 229 1107 511 1110 b 642 872 653 1028 642 943 l 642 181 b 535 15 642 108 624 15 z m 324 888 b 399 914 332 918 372 929 b 425 776 435 894 425 808 l 425 343 b 401 199 425 319 436 210 b 343 197 382 190 356 190 b 321 332 313 218 321 301 l 321 847 b 324 888 321 860 321 874 z m 297 894 b 293 847 293 879 293 863 l 293 332 b 296 235 293 290 293 258 b 413 174 306 172 354 150 b 453 343 467 194 453 300 l 453 776 b 450 872 453 814 454 846 b 297 894 436 975 315 967 z "},"R":{"ha":722,"x_min":0,"x_max":0,"o":"m 318 449 b 410 349 404 449 410 419 l 410 182 l 410 117 b 458 -14 410 99 422 -14 l 667 -14 l 690 -14 l 703 7 b 663 217 663 74 663 128 l 663 349 b 664 401 663 367 664 385 b 600 524 664 456 651 496 b 675 725 686 571 675 642 l 675 883 b 675 958 675 914 676 939 b 624 1075 674 1013 667 1036 b 418 1110 579 1117 474 1110 l 89 1110 l 75 1096 l 75 0 l 89 -14 l 304 -14 l 318 0 z m 461 14 b 438 117 449 32 438 97 l 438 182 l 438 349 b 317 476 438 428 426 476 l 304 476 l 290 463 l 290 14 l 103 14 l 103 1082 l 418 1082 b 642 1000 490 1082 618 1096 b 647 883 650 964 647 921 l 647 725 b 561 536 647 638 661 578 l 561 511 b 636 401 621 489 636 458 b 635 349 636 385 635 367 l 635 217 b 667 14 635 143 633 81 z m 322 653 l 322 906 b 417 861 357 906 417 911 l 417 722 b 322 653 417 650 376 653 z m 294 639 l 308 625 b 444 722 382 625 444 621 l 444 861 b 308 933 444 940 363 933 l 294 919 z "},"S":{"ha":731,"x_min":0,"x_max":0,"o":"m 668 749 l 668 926 b 603 1089 668 994 665 1043 b 157 1097 517 1151 240 1136 b 75 883 69 1057 75 963 l 75 715 b 278 479 75 539 82 499 l 300 479 b 418 443 350 479 396 476 b 422 226 426 432 426 240 b 388 194 413 203 410 200 b 339 199 364 188 347 192 b 318 356 311 218 318 328 l 318 425 l 304 439 l 89 439 l 75 425 l 75 236 b 150 15 75 153 65 68 b 592 10 238 -39 517 -32 b 669 236 675 56 669 156 l 669 439 b 601 651 669 517 674 600 b 357 704 531 703 436 688 b 321 861 308 715 318 825 b 346 917 324 899 331 910 b 408 914 364 925 392 921 b 425 749 432 903 425 765 l 439 735 l 654 735 z m 640 763 l 453 763 b 443 911 453 800 457 874 b 335 942 428 951 369 958 b 293 864 306 928 296 904 b 292 778 292 849 289 813 b 447 667 300 658 358 676 b 642 439 628 649 642 593 l 642 236 b 578 35 642 168 649 74 b 164 38 511 -3 243 -11 b 103 236 92 83 103 164 l 103 411 l 290 411 l 290 356 b 322 176 290 313 282 207 b 396 167 340 163 367 158 b 447 218 426 176 435 185 b 440 460 453 235 456 436 b 300 507 408 506 347 507 l 278 507 b 103 715 103 524 103 549 l 103 883 b 168 1072 103 950 96 1038 b 586 1067 247 1110 511 1121 b 640 926 640 1028 640 985 z "},"T":{"ha":588,"x_min":0,"x_max":0,"o":"m 565 1106 l 38 1106 l 24 1092 l 24 910 l 38 896 l 174 896 l 174 0 l 188 -14 l 407 -14 l 421 0 l 421 896 l 565 896 l 579 910 l 579 1092 z m 551 1078 l 551 924 l 407 924 l 393 910 l 393 14 l 201 14 l 201 910 l 188 924 l 51 924 l 51 1078 z "},"U":{"ha":732,"x_min":0,"x_max":0,"o":"m 307 1110 l 89 1110 l 75 1096 l 75 257 b 156 8 75 169 65 61 b 596 8 240 -40 524 -33 b 671 244 675 56 671 167 l 671 1096 l 657 1110 l 439 1110 l 425 1096 l 425 338 b 425 275 425 313 425 292 b 399 194 425 247 426 210 b 343 193 382 185 356 186 b 321 329 314 208 321 304 l 321 1096 z m 293 1082 l 293 329 b 329 168 293 288 283 193 b 413 169 350 157 388 156 b 453 338 465 200 453 286 l 453 1082 l 643 1082 l 643 244 b 582 33 643 179 649 72 b 169 33 518 -6 246 -11 b 103 257 92 78 103 181 l 103 1082 z "},"V":{"ha":708,"x_min":0,"x_max":0,"o":"m 360 421 l 265 1097 l 251 1110 l 33 1110 l 19 1093 l 188 -3 l 201 -14 l 511 -14 l 525 -3 l 694 1093 l 681 1110 l 465 1110 l 451 1097 z m 239 1082 l 338 383 l 346 263 l 374 263 l 383 383 l 478 1082 l 664 1082 l 499 14 l 214 14 l 50 1082 z "},"W":{"ha":908,"x_min":0,"x_max":0,"o":"m 283 569 l 249 1100 l 235 1113 l 33 1113 l 19 1097 l 121 -1 l 135 -14 l 400 -14 l 414 -1 l 447 404 l 471 -1 l 485 -14 l 750 -14 l 764 -1 l 896 1097 l 882 1113 l 671 1113 l 657 1100 l 636 800 l 621 594 l 615 528 l 614 508 l 614 503 l 606 331 l 633 331 l 625 503 l 561 1100 l 547 1113 l 350 1113 l 336 1100 z m 642 501 l 642 507 l 643 525 l 649 593 l 663 799 l 683 1085 l 867 1085 l 738 14 l 497 14 l 464 603 l 436 603 l 388 14 l 147 14 l 49 1085 l 222 1085 l 260 500 l 267 331 l 294 329 l 304 500 l 363 1085 l 535 1085 l 597 500 l 606 331 l 633 331 z "},"X":{"ha":742,"x_min":0,"x_max":0,"o":"m 454 1104 l 394 935 l 378 869 l 358 938 l 301 1104 l 289 1114 l 72 1114 l 60 1096 l 235 592 l 24 4 l 36 -14 l 254 -14 l 267 -4 l 354 242 l 371 308 l 392 239 l 393 238 l 496 -6 l 508 -14 l 718 -14 l 731 6 l 499 592 l 693 1094 l 681 1114 l 467 1114 z m 476 1086 l 660 1086 l 471 597 l 471 586 l 697 14 l 518 14 l 418 247 l 385 363 l 357 363 l 326 250 l 244 14 l 56 14 l 263 588 l 263 596 l 92 1086 l 279 1086 l 332 929 l 364 814 l 392 814 l 422 926 z "},"Y":{"ha":739,"x_min":0,"x_max":0,"o":"m 253 1110 l 28 1110 l 15 1092 l 243 435 l 243 0 l 257 -14 l 481 -14 l 494 0 l 494 435 l 735 1092 l 722 1110 l 506 1110 l 493 1100 l 389 792 l 379 750 l 371 786 l 265 1100 z m 243 1082 l 343 778 l 365 690 l 393 690 l 417 783 l 515 1082 l 703 1082 l 468 442 l 467 438 l 467 14 l 271 14 l 271 438 l 269 442 l 47 1082 z "},"Z":{"ha":679,"x_min":0,"x_max":0,"o":"m 606 1106 l 82 1106 l 68 1092 l 68 914 l 82 900 l 342 900 l 60 181 l 58 175 l 58 0 l 72 -14 l 614 -14 l 628 0 l 628 196 l 614 210 l 343 210 l 618 911 l 619 917 l 619 1092 z m 592 1078 l 592 919 l 310 201 l 322 182 l 600 182 l 600 14 l 86 14 l 86 172 l 375 908 l 363 928 l 96 928 l 96 1078 z "},"^":{"ha":533,"x_min":0,"x_max":0,"o":"m 257 1239 l 74 1103 l 85 1078 l 268 1124 l 464 1078 l 475 1103 l 274 1239 z m 265 1211 l 397 1122 l 271 1151 l 265 1151 l 146 1122 z "},"‘":{"ha":332,"x_min":0,"x_max":0,"o":"m 69 1096 l 169 810 l 182 800 l 265 800 l 279 817 l 229 1103 l 215 1114 l 82 1114 z m 101 1086 l 204 1086 l 249 828 l 192 828 z "},"a":{"ha":658,"x_min":0,"x_max":0,"o":"m 371 563 b 143 544 319 568 207 575 b 65 331 63 506 65 406 l 65 222 b 132 1 65 154 61 42 b 533 4 193 -33 481 -22 b 599 208 604 40 599 142 l 599 628 b 524 844 599 703 601 804 b 140 839 453 882 206 881 b 75 601 69 793 75 674 l 89 588 l 279 588 l 293 601 b 293 632 293 613 293 622 b 351 683 294 661 315 703 b 371 563 379 668 372 589 z m 383 533 l 399 547 b 365 708 400 590 413 682 b 304 707 351 715 326 719 b 265 615 268 685 265 651 l 103 615 b 154 817 103 672 99 782 b 510 819 210 853 447 851 b 571 628 576 785 571 690 l 571 208 b 519 29 571 154 576 58 b 146 26 475 6 197 -3 b 93 222 89 58 93 167 l 93 331 b 154 519 93 392 89 488 b 383 533 218 550 340 539 z m 294 331 b 331 382 297 360 306 376 l 332 382 b 364 372 342 385 356 382 b 368 176 374 343 372 203 b 306 161 363 156 321 149 b 294 331 288 176 293 310 z m 267 333 b 289 139 264 299 257 167 b 388 154 313 118 369 125 b 393 372 404 182 401 335 b 325 410 388 401 354 415 b 267 333 281 400 269 365 z "},"b":{"ha":676,"x_min":0,"x_max":0,"o":"m 293 1165 l 89 1165 l 75 1151 l 75 231 b 143 13 75 158 68 54 b 546 17 228 -35 457 -33 b 617 235 631 65 617 153 l 617 686 b 551 838 617 733 615 797 b 307 861 492 876 375 878 l 307 1151 z m 279 1138 l 279 843 l 297 831 b 538 815 357 850 481 850 b 589 686 588 783 589 733 l 589 235 b 589 161 589 207 589 183 b 532 42 588 110 583 71 b 157 38 451 -4 233 -6 b 103 231 96 71 103 171 l 103 1138 z m 308 665 b 358 689 314 690 333 699 b 383 553 390 676 383 578 l 383 300 l 383 224 b 360 165 383 192 378 174 b 321 164 344 158 329 158 b 304 296 297 179 304 274 l 304 551 b 308 665 304 589 301 628 z m 281 671 b 276 551 272 632 276 590 l 276 296 b 278 200 276 257 275 225 b 371 140 282 147 317 114 b 411 224 406 157 411 192 l 411 300 l 411 553 b 408 651 411 590 413 625 b 281 671 396 743 294 739 z "},"c":{"ha":665,"x_min":0,"x_max":0,"o":"m 604 475 l 604 639 b 546 839 604 706 613 799 b 142 846 474 882 210 881 b 75 650 69 808 75 718 l 75 222 b 146 8 75 150 74 50 b 546 10 215 -31 478 -31 b 610 240 619 54 610 168 l 610 344 l 596 358 l 392 358 l 378 344 l 378 304 b 358 161 378 278 385 179 b 325 161 349 156 333 156 b 304 290 299 176 304 264 l 304 556 b 321 689 304 576 297 675 b 354 692 328 693 350 694 l 357 690 b 378 535 386 676 378 560 l 378 475 l 392 461 l 590 461 z m 576 489 l 406 489 l 406 535 b 369 715 406 576 415 690 b 306 711 353 725 321 721 b 276 556 267 686 276 592 l 276 290 b 311 136 276 250 268 161 b 372 139 329 126 354 128 b 406 304 415 167 406 263 l 406 331 l 582 331 l 582 240 b 532 35 582 182 592 69 b 160 33 472 -1 221 -1 b 103 222 100 67 103 163 l 103 650 b 156 821 103 706 96 790 b 532 814 215 851 468 853 b 576 639 586 782 576 693 z "},"d":{"ha":682,"x_min":0,"x_max":0,"o":"m 608 1165 l 400 1165 l 386 1151 l 386 861 b 126 831 318 878 186 876 b 75 674 78 792 75 749 l 75 239 b 154 11 75 151 64 63 b 556 15 233 -33 472 -33 b 622 236 628 58 622 165 l 622 1151 z m 594 1138 l 594 236 b 542 40 594 178 601 75 b 168 36 467 -4 239 -4 b 103 239 90 79 103 164 l 103 674 b 143 808 103 749 107 779 b 396 831 197 851 340 850 l 414 843 l 414 1138 z m 313 640 b 322 676 314 663 317 672 b 361 688 331 688 349 692 l 363 688 b 389 551 399 672 389 579 l 389 294 b 371 163 389 271 396 176 b 331 163 360 156 342 156 b 313 293 306 176 313 271 l 313 551 b 313 640 313 590 311 619 z m 285 642 b 285 551 283 619 285 590 l 285 293 b 317 138 285 254 274 161 b 385 138 336 126 365 126 b 417 294 425 163 417 256 l 417 551 b 372 713 417 597 428 692 b 300 696 346 722 315 713 b 285 642 289 682 286 664 z "},"e":{"ha":667,"x_min":0,"x_max":0,"o":"m 606 365 l 606 633 b 551 842 606 699 617 800 b 144 849 485 883 203 878 b 75 653 69 811 75 724 l 75 203 b 149 7 75 133 79 47 b 542 3 213 -29 479 -31 b 600 67 572 19 592 33 b 606 218 610 106 606 178 l 606 256 l 606 290 l 592 304 l 388 304 l 374 290 l 374 244 b 374 211 374 233 374 222 b 372 186 374 203 374 193 b 324 160 369 161 340 147 b 311 303 304 174 311 288 l 311 351 l 592 351 z m 578 379 l 297 379 l 283 365 l 283 303 b 285 190 283 250 282 214 b 367 136 289 138 315 118 b 401 211 400 149 401 183 b 401 244 401 222 401 233 l 401 276 l 578 276 l 578 256 l 578 218 b 572 74 578 182 581 108 b 163 32 547 -31 203 8 b 103 203 104 65 103 144 l 103 653 b 158 824 103 710 96 793 b 538 817 208 849 479 853 b 578 633 589 785 578 685 z m 383 626 l 383 535 l 307 535 l 307 624 b 310 665 307 638 306 651 b 367 689 315 693 342 704 b 383 626 388 678 383 646 z m 411 626 b 407 678 411 647 411 664 b 315 717 397 717 350 735 b 279 624 278 696 279 660 l 279 521 l 293 507 l 397 507 l 411 521 z "},"f":{"ha":472,"x_min":0,"x_max":0,"o":"m 478 1131 b 149 1132 408 1157 208 1165 b 75 924 81 1093 75 992 l 75 0 l 89 -14 l 293 -14 l 307 0 l 307 678 l 435 678 l 449 692 l 449 843 l 435 857 l 310 857 b 319 978 310 871 307 965 b 467 965 344 1003 439 976 l 486 978 l 486 1118 z m 458 1108 l 458 997 b 300 997 418 1011 335 1032 b 282 843 275 972 282 872 l 296 829 l 421 829 l 421 706 l 293 706 l 279 692 l 279 14 l 103 14 l 103 924 b 163 1107 103 979 107 1076 b 458 1108 210 1133 386 1129 z "},"g":{"ha":678,"x_min":0,"x_max":0,"o":"m 88 -269 b 546 -287 235 -322 465 -335 b 618 -112 611 -250 618 -179 l 618 626 b 553 840 618 697 624 799 b 147 840 479 883 219 879 b 75 618 67 796 75 696 l 75 156 b 133 -10 75 72 76 33 b 378 -32 176 -42 314 -44 b 364 -118 378 -53 379 -104 b 96 -86 322 -154 143 -100 l 78 -100 l 78 -257 z m 106 -247 l 106 -118 b 250 -153 151 -131 203 -144 b 406 -14 400 -176 406 -135 l 388 -1 b 150 13 340 -17 188 -15 b 103 156 104 47 103 72 l 103 618 b 161 815 103 683 93 779 b 539 815 225 850 475 854 b 590 626 596 782 590 685 l 590 -112 b 532 -262 590 -168 586 -231 b 106 -247 464 -303 251 -296 z m 307 660 b 322 692 310 679 314 686 b 356 693 329 696 351 696 l 357 692 b 378 563 383 676 378 586 l 378 276 b 358 139 378 249 388 158 b 324 139 356 139 328 138 b 306 274 297 156 306 249 l 306 557 b 307 660 306 606 304 638 z m 279 663 b 278 557 276 640 278 608 l 278 274 b 310 117 278 233 267 143 b 372 117 322 108 363 110 b 406 276 418 146 406 232 l 406 563 b 371 717 406 603 414 693 b 308 714 354 726 321 722 b 279 663 289 703 282 686 z "},"h":{"ha":668,"x_min":0,"x_max":0,"o":"m 75 1151 l 75 0 l 89 -14 l 299 -14 l 313 0 l 313 549 b 331 686 313 572 304 671 b 360 686 335 689 357 689 b 381 550 390 669 381 575 l 381 0 l 394 -14 l 593 -14 l 607 0 l 607 675 b 557 847 607 731 607 811 b 311 858 515 878 378 876 l 311 1151 l 297 1165 l 89 1165 z m 103 1138 l 283 1138 l 283 839 l 303 826 b 540 825 353 849 506 850 b 579 675 581 796 579 718 l 579 14 l 408 14 l 408 550 b 406 658 408 601 408 635 b 374 711 403 683 393 700 b 317 711 363 717 331 719 b 285 549 274 685 285 589 l 285 14 l 103 14 z "},"i":{"ha":358,"x_min":0,"x_max":0,"o":"m 75 843 l 75 0 l 89 -14 l 283 -14 l 297 0 l 297 843 l 283 857 l 89 857 z m 103 829 l 269 829 l 269 14 l 103 14 z m 75 1058 l 75 875 l 89 861 l 283 861 l 297 875 l 297 1058 l 283 1072 l 89 1072 z m 103 1044 l 269 1044 l 269 889 l 103 889 z "},"j":{"ha":596,"x_min":0,"x_max":0,"o":"m 303 1058 l 303 875 l 317 861 l 522 861 l 536 875 l 536 1058 l 522 1072 l 317 1072 z m 331 1044 l 508 1044 l 508 889 l 331 889 z m 303 843 l 303 42 b 299 -49 303 -10 303 -35 b 286 -67 297 -60 294 -62 b 243 -67 276 -68 246 -68 b 224 21 221 -56 224 0 l 210 35 l 15 35 l 1 21 b 71 -228 3 -60 -14 -181 b 468 -226 136 -264 410 -258 b 536 -19 550 -181 536 -97 l 536 843 l 522 857 l 317 857 z m 331 829 l 508 829 l 508 -19 b 454 -201 508 -86 522 -164 b 85 -203 404 -229 142 -235 b 29 7 17 -165 29 -57 l 196 7 b 229 -92 196 -25 197 -75 b 294 -93 243 -99 283 -96 l 296 -92 b 326 -56 313 -86 322 -76 b 331 42 331 -37 331 -7 z "},"k":{"ha":688,"x_min":0,"x_max":0,"o":"m 281 1165 l 89 1165 l 75 1151 l 75 0 l 89 -14 l 288 -14 l 301 0 l 301 258 l 392 -4 l 404 -14 l 619 -14 l 632 4 l 440 521 l 567 838 l 554 857 l 386 857 l 374 849 l 294 660 l 294 1151 z m 267 1138 l 267 590 l 293 585 l 396 829 l 533 829 l 413 526 l 413 517 l 600 14 l 414 14 l 300 346 l 274 342 l 274 14 l 103 14 l 103 1138 z "},"l":{"ha":365,"x_min":0,"x_max":0,"o":"m 292 1165 l 89 1165 l 75 1151 l 75 0 l 89 -14 l 292 -14 l 306 0 l 306 1151 z m 278 1138 l 278 14 l 103 14 l 103 1138 z "},"m":{"ha":949,"x_min":0,"x_max":0,"o":"m 494 807 b 436 857 483 828 465 844 b 139 839 382 879 192 875 b 75 633 68 790 75 707 l 75 0 l 89 -14 l 286 -14 l 300 0 l 300 551 b 317 690 300 572 293 676 b 344 692 326 696 338 694 l 346 690 b 361 661 354 686 358 681 b 363 553 364 640 363 606 l 363 0 l 376 -14 l 585 -14 l 599 0 l 599 560 b 613 690 599 579 593 676 l 614 692 b 643 690 617 693 635 693 b 661 551 671 678 661 572 l 661 0 l 675 -14 l 875 -14 l 889 0 l 889 650 b 840 836 889 713 896 792 b 579 865 793 874 621 875 b 494 807 542 856 513 838 z m 479 769 l 506 768 b 585 838 519 807 546 828 b 824 814 626 847 786 843 b 861 650 869 778 861 701 l 861 14 l 689 14 l 689 551 b 688 660 689 601 690 636 b 654 715 685 686 676 706 b 597 714 646 719 614 725 b 571 560 561 690 571 596 l 571 14 l 390 14 l 390 553 b 389 665 390 608 392 642 b 358 715 386 689 378 704 b 303 713 343 724 321 724 b 272 551 263 688 272 589 l 272 14 l 103 14 l 103 633 b 156 817 103 696 96 775 b 425 832 197 846 376 851 b 479 769 461 817 474 793 z "},"n":{"ha":667,"x_min":0,"x_max":0,"o":"m 606 0 l 606 649 b 540 842 606 751 603 804 b 143 849 472 882 190 876 b 81 768 107 826 88 804 b 75 631 71 725 75 675 l 75 0 l 89 -14 l 290 -14 l 304 0 l 304 549 b 319 681 304 571 297 664 b 356 681 324 683 350 683 b 376 644 368 675 374 665 b 378 540 379 621 378 588 l 378 0 l 392 -14 l 592 -14 z m 578 14 l 406 14 l 406 540 b 404 649 406 590 407 624 b 367 706 400 675 390 693 b 303 703 356 711 318 714 b 276 549 268 676 276 586 l 276 14 l 103 14 l 103 631 b 103 710 103 663 103 688 b 157 824 104 763 106 794 b 526 817 196 847 467 853 b 578 649 574 789 578 754 z "},"o":{"ha":664,"x_min":0,"x_max":0,"o":"m 256 868 b 75 626 78 847 75 771 l 75 219 b 144 4 75 140 64 51 b 528 6 206 -32 469 -26 b 596 75 564 26 586 42 b 603 225 607 114 603 185 l 603 622 b 550 831 603 751 600 786 b 256 868 501 875 321 875 z m 258 840 b 392 842 275 842 332 844 b 575 622 565 832 575 797 l 575 225 b 575 133 575 186 575 157 b 514 31 574 75 569 61 b 158 29 464 1 211 -1 b 103 219 92 68 103 153 l 103 626 b 258 840 103 756 99 822 z m 311 674 b 358 683 322 688 349 689 b 376 553 382 671 376 575 l 376 297 b 358 167 376 275 386 181 b 319 168 350 163 325 164 b 304 296 299 181 304 275 l 304 547 b 311 674 304 557 301 661 z m 289 690 b 276 547 271 668 276 571 l 276 296 b 306 143 276 258 268 167 b 369 142 319 135 356 135 b 404 297 417 165 404 254 l 404 553 b 369 708 404 592 414 686 b 289 690 351 717 311 718 z "},"p":{"ha":682,"x_min":0,"x_max":0,"o":"m 308 -26 b 563 1 379 -44 499 -44 b 622 196 614 39 622 138 l 622 603 b 546 839 622 689 633 786 b 140 833 468 885 229 883 b 74 675 82 800 74 735 b 75 622 74 657 75 639 l 75 -314 l 89 -328 l 294 -328 l 308 -314 z m 299 4 l 281 -8 l 281 -300 l 103 -300 l 103 622 b 101 676 103 639 101 657 b 154 808 101 725 106 781 b 532 814 235 856 463 856 b 594 603 607 769 594 676 l 594 196 b 546 24 594 147 588 54 b 299 4 488 -19 361 -17 z m 311 657 b 369 688 315 688 339 707 b 385 554 392 674 385 575 l 385 289 b 383 176 385 231 386 197 b 329 150 379 150 354 135 b 311 181 318 156 314 163 b 310 283 308 203 310 233 l 310 551 b 311 657 310 600 308 633 z m 285 661 b 282 551 281 636 282 601 l 282 283 b 283 178 282 232 281 200 b 315 125 288 153 296 138 b 378 122 332 115 363 114 b 411 172 397 135 407 147 b 413 289 414 194 413 228 l 413 554 b 383 710 413 592 422 685 b 285 661 338 739 292 713 z "},"q":{"ha":681,"x_min":0,"x_max":0,"o":"m 621 -314 l 621 622 b 553 842 621 700 636 799 b 161 840 481 879 238 882 b 75 613 65 786 75 704 l 75 196 b 82 72 75 156 72 111 b 382 -25 111 -51 289 -46 l 382 -314 l 396 -328 l 607 -328 z m 593 -300 l 410 -300 l 410 -7 l 392 7 b 108 78 317 -15 135 -31 b 103 196 100 115 103 158 l 103 613 b 175 815 103 693 92 769 b 539 817 242 853 475 850 b 589 753 569 801 583 782 b 593 622 597 711 593 664 z m 304 663 b 367 692 308 700 336 703 b 382 564 389 683 382 579 l 382 276 b 379 175 382 244 385 207 b 303 176 371 133 308 119 b 303 281 301 197 303 229 l 303 557 b 304 663 303 607 301 640 z m 276 667 b 275 557 274 643 275 610 l 275 281 b 275 174 275 229 272 196 b 407 171 283 83 393 97 b 410 276 413 204 410 242 l 410 564 b 378 717 410 599 421 700 b 276 667 329 735 283 722 z "},"r":{"ha":532,"x_min":0,"x_max":0,"o":"m 463 840 b 154 846 360 878 228 885 b 75 632 68 800 75 714 l 75 0 l 89 -14 l 282 -14 l 296 0 l 296 564 b 297 638 296 583 294 611 b 456 678 310 739 389 690 l 472 692 l 472 828 z m 444 818 l 444 710 b 388 724 428 714 408 719 b 268 564 263 747 268 653 l 268 14 l 103 14 l 103 632 b 110 746 103 669 101 710 b 444 818 143 881 354 847 z "},"s":{"ha":654,"x_min":0,"x_max":0,"o":"m 590 768 b 540 847 585 807 571 828 b 149 854 482 882 192 875 b 85 747 106 833 90 792 b 135 367 75 663 64 417 b 347 333 183 332 286 340 b 378 261 381 329 378 286 b 357 161 378 238 383 175 b 317 160 350 157 321 157 b 294 292 288 175 294 267 l 281 306 l 89 306 l 75 292 b 78 118 75 210 75 156 b 101 39 81 81 86 57 b 364 -19 150 -21 293 -22 b 578 49 432 -18 538 -17 b 589 453 618 111 610 396 b 501 525 571 501 543 517 b 367 536 443 538 399 536 b 304 565 336 536 310 532 b 326 700 299 599 292 682 b 364 696 338 703 351 701 b 379 597 382 681 379 619 l 393 583 l 581 583 l 594 597 b 590 768 594 653 599 713 z m 563 764 b 567 611 571 714 567 661 l 407 611 b 379 718 407 643 408 700 l 378 719 b 317 725 360 731 338 735 l 315 725 b 272 601 267 706 271 644 b 367 508 274 531 283 510 b 496 497 397 508 439 510 b 564 444 532 490 551 479 b 556 63 585 390 589 115 b 465 15 540 38 506 24 b 124 56 390 1 171 -3 b 103 278 94 92 103 239 l 267 278 b 303 135 267 238 260 157 b 371 136 318 126 356 128 b 406 261 413 157 406 222 b 368 357 406 296 407 339 b 151 389 333 374 201 354 b 110 711 94 429 106 647 b 160 829 113 754 115 808 b 526 822 197 847 476 853 b 563 764 549 810 558 796 z "},"t":{"ha":442,"x_min":0,"x_max":0,"o":"m 75 992 l 75 208 b 81 113 75 176 75 144 b 460 24 114 -68 338 -32 l 468 36 l 468 176 l 450 190 b 375 174 432 185 401 178 b 303 208 340 168 307 163 b 301 311 300 229 301 260 l 301 681 l 442 681 l 456 694 l 456 843 l 442 857 l 297 857 l 297 992 l 283 1006 l 89 1006 z m 103 978 l 269 978 l 269 843 l 283 829 l 428 829 l 428 708 l 288 708 l 274 694 l 274 311 b 275 204 274 258 272 226 b 440 158 285 115 382 143 l 440 46 b 153 35 358 10 228 -14 b 103 208 101 69 103 153 z "},"u":{"ha":661,"x_min":0,"x_max":0,"o":"m 289 857 l 89 857 l 75 843 l 75 224 b 143 4 75 149 67 50 b 539 6 203 -31 478 -29 b 601 224 615 50 601 149 l 601 843 l 588 857 l 390 857 l 376 843 l 376 310 b 357 175 376 289 385 190 l 356 174 b 321 175 347 171 325 171 b 303 311 293 194 303 285 l 303 843 z m 275 829 l 275 311 b 304 153 275 268 263 182 b 369 150 321 142 353 142 b 404 310 415 174 404 269 l 404 829 l 574 829 l 574 224 b 574 150 574 196 574 172 b 525 31 574 103 571 57 b 157 29 472 0 208 -1 b 103 224 94 65 103 161 l 103 829 z "},"v":{"ha":633,"x_min":0,"x_max":0,"o":"m 25 840 l 178 -3 l 192 -14 l 408 -14 l 422 -3 l 626 840 l 613 857 l 435 857 l 421 846 l 324 383 l 257 844 l 243 857 l 39 857 z m 56 829 l 231 829 l 307 303 l 335 301 l 446 829 l 594 829 l 397 14 l 203 14 z "},"w":{"ha":815,"x_min":0,"x_max":0,"o":"m 26 842 l 138 -1 l 151 -14 l 392 -14 l 406 -1 l 419 179 l 436 -1 l 450 -14 l 681 -14 l 694 -1 l 810 842 l 796 857 l 622 857 l 608 844 l 581 529 l 553 844 l 539 857 l 332 857 l 318 844 l 290 518 l 254 844 l 240 857 l 40 857 z m 56 829 l 228 829 l 279 374 l 307 374 l 344 829 l 526 829 l 567 369 l 594 369 l 635 829 l 781 829 l 668 14 l 463 14 l 432 346 l 404 346 l 379 14 l 164 14 z "},"x":{"ha":676,"x_min":0,"x_max":0,"o":"m 246 857 l 25 857 l 13 838 l 200 446 l 14 6 l 26 -14 l 218 -14 l 231 -6 l 324 214 l 428 -6 l 440 -14 l 660 -14 l 672 6 l 461 446 l 646 838 l 633 857 l 443 857 l 431 849 l 349 672 l 258 850 z m 238 829 l 338 633 l 363 635 l 451 829 l 611 829 l 433 451 l 433 440 l 638 14 l 449 14 l 336 254 l 311 254 l 208 14 l 47 14 l 228 440 l 228 451 l 47 829 z "},"y":{"ha":668,"x_min":0,"x_max":0,"o":"m 75 843 l 75 814 l 75 189 b 117 14 75 135 68 53 b 368 -3 165 -24 304 -15 b 351 -97 369 -29 374 -78 b 103 -71 315 -129 147 -86 l 85 -83 l 85 -235 l 93 -247 b 543 -261 219 -296 451 -322 b 608 -103 597 -225 608 -162 b 607 -61 608 -86 607 -72 l 607 843 l 593 857 l 385 857 l 371 843 l 371 308 b 353 172 371 285 378 189 b 322 171 339 164 328 168 l 319 172 b 304 311 294 185 304 293 l 304 843 l 290 857 l 89 857 z m 103 829 l 276 829 l 276 311 b 278 200 276 258 275 224 b 307 147 281 175 288 158 b 367 150 321 138 344 136 b 399 308 408 176 399 268 l 399 829 l 579 829 l 579 -61 b 581 -103 579 -72 581 -86 b 526 -239 581 -153 572 -208 b 113 -225 450 -289 239 -271 l 113 -103 b 226 -129 140 -111 183 -122 b 396 14 386 -156 400 -117 l 378 28 b 133 36 325 14 175 3 b 103 189 96 65 103 147 l 103 814 z "},"z":{"ha":618,"x_min":0,"x_max":0,"o":"m 544 857 l 89 857 l 75 843 l 75 704 l 89 690 l 304 690 l 68 144 l 67 139 l 67 0 l 81 -14 l 571 -14 l 585 0 l 585 153 l 571 167 l 325 167 l 557 699 l 558 704 l 558 843 z m 531 829 l 531 707 l 292 158 l 304 139 l 557 139 l 557 14 l 94 14 l 94 136 l 338 699 l 325 718 l 103 718 l 103 829 z "},"~":{"ha":508,"x_min":0,"x_max":0,"o":"m 290 1213 b 224 1229 272 1219 250 1226 b 69 1119 146 1236 113 1192 l 89 1100 b 299 1083 165 1147 221 1086 b 454 1194 379 1081 414 1108 l 435 1211 b 290 1213 367 1168 350 1188 z m 279 1188 b 408 1167 326 1168 354 1146 b 118 1143 329 1038 214 1168 b 279 1188 163 1210 211 1215 z "},"¡":{"ha":476,"x_min":0,"x_max":0,"o":"m 307 1113 l 188 1113 l 174 1099 l 174 496 l 188 482 l 307 482 l 321 496 l 321 1099 z m 293 1085 l 293 510 l 201 510 l 201 1085 z "},"¢":{"ha":668,"x_min":0,"x_max":0,"o":"m 285 1194 l 285 1015 b 75 806 113 1011 75 963 l 75 358 b 283 118 75 179 107 129 l 283 -108 l 297 -122 l 383 -122 l 397 -108 l 397 115 b 550 151 465 118 524 138 b 610 372 625 192 610 301 l 610 486 l 596 500 l 393 500 l 379 486 l 379 458 b 378 356 379 419 381 383 b 325 310 375 325 365 289 b 304 442 294 326 304 417 l 304 699 b 324 831 304 725 296 811 b 360 833 331 836 354 836 b 379 689 385 822 379 711 l 379 635 l 393 621 l 593 621 l 607 635 l 607 786 b 396 1014 607 985 583 1001 l 396 1194 l 382 1208 l 299 1208 z m 313 1181 l 368 1181 l 368 1001 l 381 988 b 579 786 568 975 579 972 l 579 649 l 407 649 l 407 689 b 371 858 407 728 417 838 b 307 853 358 864 325 865 b 276 699 267 825 276 740 l 276 442 b 311 285 276 399 265 310 b 376 285 332 274 357 274 b 407 458 417 310 407 419 l 407 472 l 582 472 l 582 372 b 536 176 582 315 596 208 b 383 143 514 164 453 143 l 369 129 l 369 -94 l 311 -94 l 311 131 l 299 144 b 103 358 126 154 103 189 l 103 806 b 157 964 103 860 100 935 b 299 988 182 978 236 988 l 313 1001 z "},"⁄":{"ha":843,"x_min":0,"x_max":0,"o":"m 310 1381 b 307 1235 239 1353 244 1264 l 308 1235 b 413 1307 357 1213 411 1254 b 310 1381 414 1360 360 1401 z m 321 1356 b 363 1350 333 1360 349 1360 b 363 1265 392 1329 393 1285 b 319 1260 347 1257 333 1256 b 288 1303 304 1268 290 1283 b 321 1356 285 1321 294 1344 z m 490 1381 b 493 1235 421 1346 428 1261 l 494 1233 b 561 1246 519 1224 544 1232 b 556 1378 615 1282 604 1343 b 490 1381 531 1390 507 1389 z m 501 1356 b 542 1353 511 1360 525 1363 b 569 1311 557 1342 569 1326 b 546 1268 569 1300 564 1282 l 543 1267 b 504 1260 535 1260 521 1256 b 501 1356 461 1282 456 1332 z m 307 1110 l 82 1110 l 69 1092 l 297 435 l 297 0 l 311 -14 l 533 -14 l 547 0 l 547 435 l 789 1092 l 776 1110 l 560 1110 l 547 1100 l 443 792 l 433 750 l 425 786 l 319 1100 z m 297 1082 l 397 778 l 419 690 l 447 690 l 471 783 l 569 1082 l 757 1082 l 521 442 l 519 438 l 519 14 l 325 14 l 325 438 l 324 442 l 101 1082 z "},"¥":{"ha":668,"x_min":0,"x_max":0,"o":"m 75 836 l 75 196 b 79 76 75 157 71 115 b 386 18 107 -54 301 -33 l 386 -261 l 400 -275 l 593 -275 l 607 -261 l 607 836 l 593 850 l 379 850 l 365 836 l 365 310 b 364 217 365 272 367 242 b 321 171 363 201 349 150 l 318 172 b 301 308 294 185 301 286 l 301 836 l 288 850 l 89 850 z m 103 822 l 274 822 l 274 308 b 306 147 274 269 263 172 b 364 151 322 138 343 136 b 393 310 401 179 393 269 l 393 822 l 579 822 l 579 -247 l 414 -247 l 414 46 l 390 57 b 156 21 332 6 214 -7 b 103 196 89 54 103 135 z "},"ƒ":{"ha":660,"x_min":0,"x_max":0,"o":"m 600 0 l 600 607 b 600 696 600 643 600 672 b 532 832 599 761 593 792 b 147 836 464 876 214 871 b 75 588 60 789 76 669 l 89 574 l 283 574 l 297 588 b 300 664 299 621 297 646 b 358 692 304 693 333 706 b 376 551 383 678 376 571 l 344 551 b 238 549 328 551 283 553 b 69 296 61 532 69 442 l 69 222 b 76 82 69 176 67 126 b 396 14 107 -56 303 -43 l 399 -3 l 413 -14 l 586 -14 z m 572 14 l 424 14 l 418 40 l 396 49 b 103 88 325 -10 129 -33 b 97 222 93 131 97 178 l 97 296 b 132 488 97 349 90 447 b 344 524 172 526 290 524 l 390 524 l 404 538 b 401 660 404 596 404 633 b 311 719 396 708 361 742 b 269 601 261 697 271 646 l 103 601 b 161 811 103 667 90 774 b 518 810 219 843 458 849 b 567 749 549 790 561 774 b 572 607 578 706 572 651 z m 364 375 b 378 374 368 375 372 374 l 378 331 b 376 215 378 281 379 243 b 354 168 374 188 367 175 b 324 163 346 163 332 160 b 308 344 290 176 301 311 b 364 375 315 378 333 381 z m 368 403 b 297 386 342 407 318 407 b 276 194 268 358 272 226 b 368 143 283 144 324 117 b 406 331 419 175 406 282 l 406 385 l 394 399 b 368 403 385 400 376 401 z "},"¤":{"ha":476,"x_min":0,"x_max":0,"o":"m 267 619 l 349 743 b 401 908 403 824 401 822 l 401 969 b 357 1100 401 1017 404 1072 b 119 1100 304 1131 168 1128 b 75 961 68 1069 75 1011 l 75 867 l 89 853 l 206 853 l 219 867 l 219 904 b 224 979 219 917 217 967 b 243 985 231 985 239 986 l 246 983 b 257 971 250 982 253 981 l 258 963 b 253 883 258 938 260 907 b 115 667 238 828 136 696 b 78 553 83 622 78 604 b 78 496 78 539 78 519 l 92 482 l 390 482 l 404 496 l 404 606 l 390 619 z m 229 614 l 240 592 l 376 592 l 376 510 l 106 510 b 106 553 106 528 106 542 b 107 589 106 568 106 579 b 224 772 115 635 222 769 b 285 935 269 838 283 858 b 253 1011 286 964 292 1000 b 207 1001 236 1017 218 1010 b 192 904 185 985 192 926 l 192 881 l 103 881 l 103 961 b 133 1075 103 999 96 1053 b 343 1075 174 1099 299 1101 b 374 969 378 1056 374 1004 l 374 908 b 326 760 374 828 376 833 z "},"'":{"ha":338,"x_min":0,"x_max":0,"o":"m 75 1096 l 75 913 l 89 899 l 131 899 l 68 786 l 81 765 l 175 765 l 186 772 l 275 910 l 278 917 l 278 1096 l 264 1110 l 89 1110 z m 103 1082 l 250 1082 l 250 921 l 168 793 l 104 793 l 167 906 l 154 926 l 103 926 z "},"“":{"ha":569,"x_min":0,"x_max":0,"o":"m 171 1108 l 78 976 l 75 968 l 75 781 l 89 767 l 265 767 l 279 781 l 279 969 l 265 983 l 229 983 l 288 1093 l 275 1114 l 182 1114 z m 189 1086 l 251 1086 l 193 976 l 206 956 l 251 956 l 251 794 l 103 794 l 103 964 z m 401 1108 l 308 976 l 306 968 l 306 781 l 319 767 l 496 767 l 510 781 l 510 969 l 496 983 l 460 983 l 518 1093 l 506 1114 l 413 1114 z m 419 1086 l 482 1086 l 424 976 l 436 956 l 482 956 l 482 794 l 333 794 l 333 964 z "},"‹":{"ha":476,"x_min":0,"x_max":0,"o":"m 408 897 b 408 933 408 908 408 919 l 408 988 b 365 1108 408 1032 413 1083 b 119 1107 321 1131 163 1131 b 75 961 68 1078 75 1010 l 75 904 l 89 890 l 193 890 l 207 890 l 221 904 l 221 922 b 229 1000 221 936 218 988 b 247 1001 233 1003 242 1003 l 250 1000 b 264 989 257 999 261 996 b 261 896 265 981 267 906 b 214 881 251 878 231 881 l 200 867 l 200 785 l 214 771 b 263 764 228 771 250 771 b 256 615 276 744 276 625 b 231 615 246 611 235 613 l 229 617 b 218 694 214 624 218 682 l 218 739 l 204 753 l 86 753 l 72 739 l 72 639 b 117 507 72 594 72 535 b 372 507 165 478 324 476 b 414 651 422 539 414 601 l 414 738 b 378 835 414 776 419 813 b 408 897 400 850 407 871 z m 381 899 b 339 847 379 868 371 857 l 339 819 b 386 738 394 803 386 788 l 386 651 b 383 567 386 624 389 593 b 131 532 367 488 164 511 b 100 639 97 551 100 606 l 100 725 l 190 725 l 190 694 b 214 593 190 665 185 610 b 267 590 228 582 251 582 b 296 633 286 600 292 614 b 281 785 301 660 306 764 l 279 786 b 228 799 265 797 244 799 l 228 853 l 235 853 b 286 882 258 853 275 861 b 289 997 296 901 293 986 b 257 1028 285 1013 274 1024 b 210 1019 243 1032 222 1031 b 193 922 189 999 193 949 l 193 918 l 103 918 l 103 961 b 133 1082 103 997 96 1061 b 351 1083 168 1101 315 1101 b 381 988 386 1065 381 1019 l 381 933 b 381 899 381 921 381 908 z "},"›":{"ha":476,"x_min":0,"x_max":0,"o":"m 69 750 l 69 640 l 83 626 l 257 626 l 257 497 l 271 483 l 388 483 l 401 497 l 401 626 l 425 626 l 439 640 l 439 749 l 425 763 l 401 763 l 401 1099 l 388 1113 l 281 1113 l 268 1106 l 71 757 z m 97 746 l 289 1085 l 374 1085 l 374 749 l 388 735 l 411 735 l 411 654 l 388 654 l 374 640 l 374 511 l 285 511 l 285 640 l 271 654 l 97 654 z m 219 763 l 257 838 l 257 763 z m 185 754 l 197 735 l 271 735 l 285 749 l 285 897 l 258 903 z "},"ﬁ":{"ha":476,"x_min":0,"x_max":0,"o":"m 394 1119 l 92 1119 l 78 1106 l 78 769 l 92 756 l 208 756 l 219 761 b 235 782 225 769 229 776 b 258 782 239 783 254 783 b 268 719 274 771 268 735 l 268 688 b 261 614 268 683 271 619 l 258 613 b 233 610 253 610 235 608 b 225 681 221 617 225 669 l 225 704 l 211 718 l 89 718 l 75 704 l 75 635 b 121 501 75 586 71 532 b 372 501 172 471 318 472 b 418 626 422 529 418 579 l 418 797 b 390 890 418 831 418 867 b 224 907 358 918 268 917 l 224 990 l 394 990 l 408 1004 l 408 1106 z m 381 1092 l 381 1018 l 210 1018 l 196 1004 l 196 889 l 217 876 b 374 868 236 888 344 892 b 390 797 392 853 390 819 l 390 626 b 388 565 390 606 392 585 b 135 526 369 483 172 503 b 103 635 97 549 103 597 l 103 690 l 197 690 l 197 681 b 219 585 197 653 190 603 b 274 589 232 578 261 583 b 296 688 303 604 296 663 l 296 719 b 274 806 296 750 306 790 l 271 807 b 222 807 260 814 231 811 l 218 806 b 201 783 211 799 206 792 l 106 783 l 106 1092 z "},"ﬂ":{"ha":476,"x_min":0,"x_max":0,"o":"m 415 926 l 415 972 b 371 1104 415 1021 422 1075 b 121 1104 322 1132 169 1129 b 75 988 76 1081 75 1031 l 75 618 b 121 499 75 572 75 526 b 369 497 171 469 322 471 b 418 606 410 519 418 563 b 418 635 418 617 418 626 l 418 788 b 390 879 418 821 419 856 b 224 897 364 900 268 901 l 224 918 b 233 996 224 933 219 983 b 258 996 242 1000 254 999 b 268 926 274 989 268 939 l 282 913 l 401 913 z m 388 940 l 296 940 b 296 981 296 956 296 968 b 219 1018 290 1019 253 1040 b 196 918 189 999 196 949 l 196 881 l 213 867 b 374 857 243 874 354 874 b 390 788 393 842 390 810 l 390 635 b 390 606 390 626 390 617 b 356 522 390 574 386 539 b 135 524 317 500 176 499 b 103 618 100 543 103 583 l 103 988 b 135 1079 103 1019 101 1061 b 357 1079 175 1100 317 1103 b 388 972 394 1058 388 1008 z m 226 749 b 233 771 228 764 231 769 l 235 772 b 258 774 239 775 251 778 b 268 701 274 765 268 714 l 268 685 b 268 622 268 656 269 636 b 260 608 267 613 264 610 b 235 608 254 604 242 604 b 225 633 228 611 225 615 l 225 697 b 226 749 225 717 224 735 z m 199 753 b 197 697 197 736 197 717 l 197 633 b 221 583 197 610 203 594 b 274 583 238 574 260 576 b 296 685 306 600 296 656 l 296 701 b 296 761 296 728 297 747 b 218 794 290 797 250 818 b 199 753 204 785 200 767 z "},"†":{"ha":632,"x_min":0,"x_max":0,"o":"m 296 1008 l 89 1008 l 75 994 l 75 210 b 140 6 75 138 64 44 b 535 7 206 -28 471 -29 b 599 235 613 51 599 160 l 599 456 l 585 469 l 397 469 l 383 456 l 383 317 b 358 168 383 288 392 185 b 326 171 353 165 333 167 b 310 303 303 186 310 281 l 310 685 l 557 685 l 571 699 l 571 846 l 557 860 l 310 860 l 310 994 z m 282 981 l 282 846 l 296 832 l 543 832 l 543 713 l 296 713 l 282 699 l 282 303 b 310 149 282 265 272 174 b 369 143 326 138 356 136 b 411 317 421 168 411 271 l 411 442 l 571 442 l 571 235 b 521 32 571 172 585 68 b 154 31 465 0 211 1 b 103 210 90 63 103 151 l 103 981 z "},"‡":{"ha":476,"x_min":0,"x_max":0,"o":"m 393 1110 l 92 1110 l 78 1096 l 78 994 l 92 981 l 240 981 l 85 500 l 99 482 l 225 482 l 238 492 l 406 990 l 407 994 l 407 1096 z m 379 1082 l 379 997 l 215 510 l 118 510 l 274 990 l 260 1008 l 106 1008 l 106 1082 z "},"·":{"ha":404,"x_min":0,"x_max":0,"o":"m 211 96 l 211 67 b 153 56 172 63 164 58 b 92 -90 82 39 36 -31 b 249 -133 126 -128 214 -139 b 344 -71 288 -126 325 -111 b 342 -18 356 -50 351 -33 b 299 6 331 -3 314 6 b 257 -21 278 4 264 -7 b 264 -79 243 -46 251 -65 b 249 -82 257 -81 251 -82 b 218 -69 238 -82 228 -75 l 217 -69 b 204 -46 207 -64 203 -56 b 249 -7 207 -32 221 -17 l 258 6 l 258 96 l 244 110 l 225 110 z m 239 82 l 244 82 l 231 96 l 231 15 b 176 -40 204 4 182 -15 b 204 -94 172 -64 185 -85 b 249 -110 218 -103 232 -110 b 296 -92 256 -110 279 -107 l 294 -71 b 282 -35 279 -58 275 -49 l 282 -33 b 299 -22 285 -29 289 -24 b 319 -35 306 -22 313 -25 b 319 -60 324 -42 325 -47 b 243 -106 306 -86 279 -100 b 111 -71 214 -111 138 -100 b 97 -22 99 -57 93 -37 b 226 40 110 26 185 38 l 239 54 z "},"•":{"ha":344,"x_min":0,"x_max":0,"o":"m 271 481 l 89 481 l 75 467 l 75 283 l 89 269 l 271 269 l 285 283 l 285 467 z m 257 453 l 257 297 l 103 297 l 103 453 z "},"”":{"ha":569,"x_min":0,"x_max":0,"o":"m 414 772 l 507 904 l 510 913 l 510 1100 l 496 1114 l 319 1114 l 306 1100 l 306 911 l 319 897 l 356 897 l 297 788 l 310 767 l 403 767 z m 396 794 l 333 794 l 392 904 l 379 925 l 333 925 l 333 1086 l 482 1086 l 482 917 z m 183 772 l 276 904 l 279 913 l 279 1100 l 265 1114 l 89 1114 l 75 1100 l 75 911 l 89 897 l 125 897 l 67 788 l 79 767 l 172 767 z m 165 794 l 103 794 l 161 904 l 149 925 l 103 925 l 103 1086 l 251 1086 l 251 917 z "},"‰":{"ha":660,"x_min":0,"x_max":0,"o":"m 403 819 b 365 839 389 829 378 835 b 136 822 303 864 181 851 b 75 632 69 778 75 701 l 75 201 b 85 65 75 161 72 104 b 392 14 119 -49 314 -44 l 392 0 l 406 -14 l 586 -14 l 600 0 l 600 833 l 586 847 l 417 847 l 403 833 z m 408 782 l 431 793 l 431 819 l 572 819 l 572 14 l 419 14 l 419 47 l 394 56 b 111 74 339 -14 140 -25 b 103 201 100 108 103 165 l 103 632 b 153 800 103 690 96 763 b 354 814 188 824 300 835 b 408 782 371 807 386 800 z m 310 639 b 357 663 314 661 336 672 b 379 608 383 651 379 631 l 379 304 b 357 167 379 276 388 183 b 307 297 293 129 307 275 l 307 524 b 310 639 307 561 303 603 z m 283 644 b 279 524 275 606 279 563 l 279 297 b 308 143 279 258 271 168 b 371 142 329 129 356 133 b 407 304 417 169 407 261 l 407 608 b 407 624 407 613 407 618 b 283 644 407 708 297 715 z "},"¿":{"ha":647,"x_min":0,"x_max":0,"o":"m 351 1146 l 251 504 l 265 488 l 290 488 l 304 499 l 406 1140 l 392 1157 l 365 1157 z m 378 1129 l 392 1129 l 378 1146 l 278 515 l 265 515 l 279 499 z m 342 808 b 342 774 342 797 342 786 l 342 640 b 374 528 342 603 338 550 b 550 526 401 510 524 513 b 586 636 590 549 586 597 l 586 772 b 561 876 586 810 589 847 b 401 893 536 903 432 899 b 342 808 358 879 344 850 z m 369 807 b 410 865 371 836 378 856 b 478 869 418 868 447 871 b 558 772 558 868 558 851 l 558 636 b 536 551 558 611 564 565 b 388 550 518 542 406 539 b 369 640 365 565 369 617 l 369 774 b 369 807 369 785 369 796 z m 472 804 b 478 738 479 792 478 750 l 478 674 l 478 633 b 472 606 478 617 476 610 b 457 606 467 606 463 604 b 451 671 449 613 451 663 l 451 736 b 458 803 451 746 450 797 l 461 804 b 472 804 464 804 468 804 z m 425 788 b 424 736 424 774 424 756 l 424 671 b 481 579 424 619 415 567 l 486 582 b 506 633 504 594 506 617 l 506 674 l 506 738 b 490 825 506 764 508 803 b 443 826 482 835 456 833 b 425 788 431 818 426 801 z m 75 1082 b 75 1047 75 1071 75 1060 l 75 914 b 107 800 75 876 69 824 b 282 800 133 785 257 786 b 318 911 325 825 318 871 l 318 1046 b 296 1150 318 1081 322 1122 b 136 1167 268 1181 153 1172 b 75 1082 92 1154 78 1124 z m 103 1081 b 107 1107 103 1090 104 1100 b 276 1131 125 1164 264 1143 b 290 1046 294 1111 290 1071 l 290 911 b 268 825 290 883 297 842 b 121 825 251 815 138 814 b 103 914 97 839 103 890 l 103 1047 b 103 1081 103 1058 103 1069 z m 204 1078 b 211 1011 213 1065 211 1024 l 211 947 l 211 907 b 204 879 211 890 210 883 b 190 881 200 879 192 879 b 185 944 182 888 185 936 l 185 1010 b 193 1078 185 1022 181 1068 b 204 1078 197 1078 200 1078 z m 158 1061 b 157 1010 157 1047 157 1031 l 157 944 b 157 892 157 921 157 904 b 214 854 160 861 183 843 l 217 854 b 239 907 238 868 239 889 l 239 947 l 239 1011 b 210 1104 239 1035 243 1097 b 158 1061 179 1110 161 1096 z "},"`":{"ha":417,"x_min":0,"x_max":0,"o":"m 360 1106 b 129 1269 325 1138 182 1279 b 74 1167 88 1261 53 1207 b 347 1082 103 1110 294 1092 z m 306 1117 b 99 1181 264 1125 118 1143 b 135 1242 86 1203 111 1238 b 306 1117 164 1247 282 1138 z "},"´":{"ha":407,"x_min":0,"x_max":0,"o":"m 86 1083 l 182 1111 b 347 1193 225 1124 328 1149 b 346 1254 357 1215 356 1236 b 288 1294 331 1279 308 1293 b 199 1244 260 1297 225 1269 b 72 1107 154 1203 113 1153 z m 125 1124 b 285 1267 153 1154 249 1271 b 321 1240 297 1265 313 1257 b 322 1204 326 1232 329 1221 b 125 1124 307 1169 164 1136 z "},"ˆ":{"ha":667,"x_min":0,"x_max":0,"o":"m 606 0 l 606 638 b 606 701 606 660 606 681 b 392 856 601 863 517 856 b 282 821 353 856 311 844 l 282 836 l 268 850 l 89 850 l 75 836 l 75 0 l 89 -14 l 297 -14 l 311 0 l 311 538 b 329 669 311 563 307 653 b 363 669 339 676 354 675 b 382 539 388 657 382 563 l 382 0 l 396 -14 l 592 -14 z m 578 14 l 410 14 l 410 539 b 376 694 410 578 417 671 b 313 692 360 704 333 707 b 283 538 276 665 283 576 l 283 14 l 103 14 l 103 822 l 254 822 l 254 782 l 281 776 b 392 828 296 808 343 828 b 517 821 422 828 489 831 b 578 638 590 797 578 699 z "},"˜":{"ha":657,"x_min":0,"x_max":0,"o":"m 75 838 l 75 0 l 89 -14 l 301 -14 l 315 0 l 315 540 b 350 669 315 553 304 692 l 353 668 b 365 531 372 658 365 543 l 365 486 l 379 472 l 583 472 l 597 486 l 597 615 b 519 842 597 690 607 810 b 292 821 461 864 356 869 l 292 838 l 278 851 l 89 851 z m 103 824 l 264 824 l 264 786 l 289 778 b 508 817 333 839 446 840 b 569 615 579 790 569 676 l 569 500 l 393 500 l 393 531 b 392 642 393 583 393 619 b 365 693 389 665 385 683 b 315 690 353 700 335 703 b 288 540 281 667 288 576 l 288 14 l 103 14 z "},"¯":{"ha":464,"x_min":0,"x_max":0,"o":"m 390 1197 l 89 1197 l 75 1183 l 75 1100 l 89 1086 l 390 1086 l 404 1100 l 404 1183 z m 376 1169 l 376 1114 l 103 1114 l 103 1169 z "},"˘":{"ha":464,"x_min":0,"x_max":0,"o":"m 68 1217 b 238 1085 86 1136 154 1082 b 410 1215 307 1088 369 1126 l 390 1233 b 356 1213 379 1226 367 1221 l 350 1208 l 346 1206 b 90 1231 251 1154 178 1164 z m 108 1185 b 361 1182 190 1135 268 1131 l 364 1185 l 369 1189 b 385 1197 374 1192 379 1194 b 404 1208 394 1203 404 1208 l 385 1226 b 238 1113 347 1146 293 1115 b 108 1185 183 1110 135 1138 z "},"¨":{"ha":458,"x_min":0,"x_max":0,"o":"m 118 1233 b 115 1088 47 1206 53 1117 l 117 1088 b 183 1096 139 1076 164 1083 b 118 1233 265 1149 199 1265 z m 129 1208 b 169 1203 142 1213 156 1213 b 128 1113 224 1165 175 1096 b 96 1156 113 1121 99 1136 b 129 1208 93 1174 103 1197 z m 297 1233 b 301 1088 229 1200 236 1114 l 303 1086 b 369 1099 328 1076 353 1085 b 364 1231 424 1135 413 1196 b 297 1233 339 1243 315 1242 z m 308 1208 b 350 1206 318 1214 333 1215 b 378 1164 365 1194 378 1179 b 354 1121 378 1153 372 1135 l 351 1119 b 313 1113 343 1113 329 1108 b 308 1208 271 1135 263 1185 z "},"˚":{"ha":293,"x_min":0,"x_max":0,"o":"m 129 1254 b 69 1163 88 1240 64 1200 b 240 1169 85 1054 235 1067 b 129 1254 243 1231 186 1274 z m 138 1229 b 188 1222 153 1235 174 1233 b 131 1118 250 1176 186 1092 b 138 1229 83 1142 86 1213 z m 131 1161 b 138 1193 125 1171 126 1182 l 140 1196 b 161 1199 142 1197 149 1201 b 178 1179 165 1199 175 1190 b 175 1154 181 1169 181 1161 b 151 1146 172 1151 163 1144 b 131 1161 143 1147 135 1151 z m 106 1147 b 149 1118 114 1131 132 1119 b 197 1138 168 1117 189 1126 b 167 1226 221 1168 201 1221 b 119 1214 149 1229 129 1226 b 106 1147 99 1196 94 1169 z "},"ª":{"ha":476,"x_min":0,"x_max":0,"o":"m 79 686 l 79 649 b 121 506 79 600 72 536 b 372 506 172 475 322 478 b 415 614 413 529 415 574 l 415 993 b 372 1111 415 1038 418 1085 b 121 1111 318 1143 169 1139 b 76 982 74 1083 76 1028 l 76 808 b 110 725 76 788 78 749 b 268 711 146 699 224 703 l 268 689 l 268 644 b 267 622 268 631 268 625 b 235 614 264 614 239 611 b 225 644 224 619 225 635 l 225 665 l 225 686 l 211 700 l 93 700 z m 107 672 l 197 672 l 197 665 l 197 644 b 200 615 197 635 197 625 b 275 592 208 583 250 576 b 296 644 296 606 296 622 l 296 689 l 296 729 l 278 743 b 126 747 242 732 156 726 b 104 808 107 761 104 788 l 104 982 b 135 1086 104 1015 100 1067 b 358 1086 175 1110 314 1113 b 388 993 392 1067 388 1026 l 388 614 b 358 531 388 585 388 547 b 135 531 317 507 176 504 b 107 649 100 551 107 613 z m 226 989 b 261 1003 228 1007 244 1010 b 269 933 272 997 269 943 l 269 910 b 261 839 269 899 274 846 b 226 851 246 832 229 833 b 225 907 224 869 225 889 l 225 931 b 226 989 225 958 225 976 z m 199 992 b 197 931 197 979 197 961 l 197 907 b 199 847 197 888 196 867 b 272 814 204 811 242 799 b 297 910 304 829 297 882 l 297 933 b 296 988 297 953 297 972 b 199 992 289 1051 206 1049 z "},"Œ":{"ha":667,"x_min":0,"x_max":0,"o":"m 404 825 b 140 833 331 861 203 872 b 75 638 81 796 75 700 l 75 183 b 131 1 75 128 83 38 b 378 -17 175 -32 317 -28 b 364 -128 379 -42 383 -112 b 315 -129 354 -132 319 -132 b 294 -54 289 -117 294 -78 l 281 -40 l 100 -40 l 86 -53 b 147 -282 82 -129 71 -233 b 538 -281 208 -321 485 -308 b 606 -67 607 -243 606 -133 l 606 835 l 592 849 l 418 849 l 404 835 z m 410 790 l 432 801 l 432 821 l 578 821 l 578 -67 b 524 -256 578 -121 581 -225 b 161 -260 478 -281 214 -293 b 113 -68 103 -224 110 -129 l 267 -68 b 301 -154 267 -101 268 -137 b 378 -151 314 -161 361 -162 b 406 0 417 -126 406 -40 l 388 14 b 147 24 340 1 185 -6 b 103 183 110 53 103 139 l 103 638 b 154 811 103 688 107 781 b 410 790 213 847 350 831 z m 315 657 b 328 676 319 669 324 675 b 379 539 389 710 379 563 l 379 281 b 358 146 379 258 385 160 b 324 147 354 143 333 143 b 308 278 303 165 308 254 l 308 543 b 315 657 308 581 304 621 z m 289 665 b 281 543 276 626 281 583 l 281 278 b 308 124 281 242 269 143 l 311 122 b 372 121 324 114 357 113 b 407 281 415 144 407 242 l 407 539 b 372 699 407 582 415 672 b 289 665 335 721 301 704 z "},"º":{"ha":476,"x_min":0,"x_max":0,"o":"m 193 1128 b 82 990 92 1117 82 1082 l 82 632 b 82 596 82 619 82 608 b 126 500 82 557 88 521 b 372 506 178 472 322 478 b 415 644 419 533 415 597 l 415 989 b 386 1100 415 1024 414 1076 b 193 1128 351 1132 239 1133 z m 196 1100 b 276 1101 203 1101 239 1103 b 388 989 375 1096 388 1081 l 388 644 b 358 531 388 611 393 549 b 140 525 317 507 182 501 b 110 596 111 540 110 568 b 110 632 110 608 110 619 l 110 990 b 196 1100 110 1067 111 1090 z m 228 979 b 261 1000 229 1000 238 1008 b 269 972 265 997 269 992 l 269 931 l 269 689 b 269 635 269 668 271 650 b 246 613 267 617 264 614 b 226 686 219 610 226 671 l 226 929 b 228 979 226 949 226 965 z m 200 982 b 199 929 199 968 199 950 l 199 686 b 249 585 199 650 192 581 b 297 689 308 589 297 646 l 297 931 l 297 972 b 274 1025 297 996 293 1015 l 272 1025 b 200 982 233 1043 204 1021 z "},"ı":{"ha":358,"x_min":0,"x_max":0,"o":"m 75 843 l 75 0 l 89 -14 l 283 -14 l 297 0 l 297 843 l 283 857 l 89 857 z m 103 829 l 269 829 l 269 14 l 103 14 z "},"ø":{"ha":358,"x_min":0,"x_max":0,"o":"m 283 1132 l 89 1132 l 75 1118 l 75 911 l 89 897 l 283 897 l 297 911 l 297 1118 z m 269 1104 l 269 925 l 103 925 l 103 1104 z m 75 836 l 75 0 l 89 -14 l 283 -14 l 297 0 l 297 836 l 283 850 l 89 850 z m 103 822 l 269 822 l 269 14 l 103 14 z "},"œ":{"ha":665,"x_min":0,"x_max":0,"o":"m 401 825 b 144 839 332 867 200 868 b 75 628 74 800 75 696 l 75 121 b 104 18 75 86 79 67 l 113 11 l 119 10 b 372 -19 189 -53 297 -40 l 372 -265 b 389 -314 372 -282 371 -306 l 394 -315 l 590 -315 l 604 -301 l 604 828 l 590 842 l 415 842 l 401 828 z m 401 -287 b 400 -265 399 -281 400 -272 l 400 0 l 382 14 b 136 32 306 -12 199 -26 l 131 36 l 126 36 b 103 121 104 76 103 93 l 103 628 b 158 814 103 683 100 783 b 406 788 211 843 358 835 l 429 797 l 429 814 l 576 814 l 576 -287 z m 313 654 b 325 675 317 667 321 674 b 358 675 332 679 350 681 b 378 544 383 661 378 567 l 378 290 b 354 154 378 268 379 169 l 353 153 b 322 153 346 149 336 146 b 306 283 297 169 306 261 l 306 538 b 313 654 306 575 301 617 z m 286 663 b 278 538 274 622 278 579 l 278 283 b 285 165 278 244 272 203 b 368 131 296 129 333 106 b 406 290 410 154 406 251 l 406 544 b 372 700 406 582 414 676 b 311 700 356 710 326 708 b 286 663 297 692 290 676 z "},"ß":{"ha":472,"x_min":0,"x_max":0,"o":"m 213 747 l 208 751 l 89 751 l 75 738 l 75 710 l 75 639 b 214 488 75 515 110 493 l 214 468 l 228 454 l 264 454 l 278 468 l 278 486 b 413 628 386 497 413 519 l 413 749 b 410 799 413 763 413 781 b 274 893 400 872 339 892 l 274 1008 l 260 994 b 263 994 261 994 263 994 b 265 940 265 988 265 949 b 265 914 265 931 265 914 l 279 900 l 399 900 l 413 914 l 413 969 b 411 1038 413 997 413 1019 b 275 1126 403 1107 335 1121 l 275 1153 l 261 1167 l 226 1167 l 213 1153 l 213 1128 b 75 986 113 1124 75 1093 l 75 893 b 213 758 75 769 115 765 z m 240 1139 l 247 1139 l 247 1113 l 261 1099 b 369 1068 288 1099 347 1089 b 385 969 390 1049 385 994 l 385 928 l 293 928 l 293 940 b 260 1022 293 968 301 1022 l 246 1008 l 246 879 l 260 865 b 311 861 269 865 289 865 b 385 749 382 847 385 810 l 385 628 b 263 513 385 525 361 524 l 250 499 l 250 482 l 242 482 l 242 500 l 229 514 b 103 639 125 519 103 529 l 103 710 l 103 724 l 194 724 l 194 693 l 194 647 b 226 593 194 626 199 593 l 240 607 l 240 771 l 228 785 b 103 893 139 792 103 781 l 103 986 b 226 1100 103 1088 138 1097 l 240 1114 z m 226 993 l 228 993 l 213 1007 b 226 899 213 1007 213 885 b 221 944 221 907 221 936 b 226 993 221 947 221 988 z m 215 1018 b 193 944 190 1008 193 965 b 226 871 193 922 193 871 l 240 885 l 240 1007 l 225 1021 b 215 1018 222 1021 218 1019 z m 275 608 l 275 760 l 261 746 b 263 746 263 746 263 746 b 265 724 264 743 265 738 l 265 649 b 263 622 265 639 265 632 b 260 622 263 622 261 622 z m 247 608 l 263 594 b 293 649 293 597 293 625 l 293 724 b 261 774 293 747 290 774 l 247 760 z "},"µ":{"ha":963,"x_min":0,"x_max":0,"o":"m 553 806 b 479 853 535 829 514 846 b 268 824 429 863 324 861 l 268 838 l 254 851 l 89 851 l 75 838 l 75 0 l 89 -14 l 290 -14 l 304 0 l 304 519 b 322 661 304 543 297 647 b 351 663 331 667 347 665 b 369 526 379 647 369 550 l 369 0 l 383 -14 l 588 -14 l 601 0 l 601 529 b 621 669 601 556 593 650 b 646 669 625 672 643 671 l 647 668 b 664 531 671 653 664 550 l 664 0 l 678 -14 l 888 -14 l 901 0 l 901 638 b 896 761 901 675 906 726 b 553 806 864 882 622 872 z m 540 775 l 563 775 b 868 754 613 842 842 853 b 874 638 876 722 874 671 l 874 14 l 692 14 l 692 531 b 661 692 692 569 703 667 b 604 692 649 699 618 701 b 574 529 563 663 574 572 l 574 14 l 397 14 l 397 526 b 365 688 397 567 410 661 b 308 686 353 694 325 696 b 276 519 267 661 276 560 l 276 14 l 103 14 l 103 824 l 240 824 l 240 790 l 265 783 b 474 825 294 828 413 836 b 540 775 504 819 521 803 z "},"÷":{"ha":290,"x_min":0,"x_max":0,"o":"m 185 1096 l 68 500 l 82 483 l 106 483 l 119 494 l 238 1090 l 224 1107 l 199 1107 z m 210 1079 l 224 1079 l 210 1096 l 94 511 l 82 511 l 96 494 z "},"°":{"ha":476,"x_min":0,"x_max":0,"o":"m 417 896 b 417 926 417 906 417 915 l 417 972 b 372 1107 417 1021 422 1078 b 121 1107 319 1136 174 1136 b 75 972 71 1078 75 1021 l 75 931 b 103 833 75 893 71 861 b 74 757 72 811 74 789 l 74 635 b 119 501 74 588 74 529 b 379 501 172 468 324 471 b 421 635 425 528 421 590 l 421 767 b 390 836 421 804 414 821 b 417 896 411 851 417 871 z m 389 897 b 357 847 389 871 382 860 l 357 822 b 393 767 390 806 393 803 l 393 635 b 365 526 393 604 397 544 b 133 524 318 500 176 496 b 101 635 100 544 101 600 l 101 757 b 135 819 101 790 99 803 l 136 844 b 103 931 96 865 103 894 l 103 972 b 135 1082 103 1008 97 1061 b 358 1082 179 1107 314 1107 b 389 972 396 1061 389 1008 l 389 926 b 389 897 389 915 389 906 z m 226 983 b 233 997 228 990 229 994 b 260 999 233 997 251 1000 b 268 983 267 996 268 992 l 268 903 b 225 892 268 874 231 876 l 225 950 b 226 983 225 961 225 972 z m 199 988 b 197 950 197 975 197 963 l 197 890 l 197 889 b 296 903 197 840 296 838 l 296 983 b 269 1025 296 1004 289 1015 l 267 1026 b 217 1019 257 1028 228 1028 b 199 988 206 1011 200 1000 z m 225 749 b 236 765 226 757 229 761 b 264 765 239 767 256 768 b 272 738 268 763 272 757 l 272 671 b 265 614 272 660 276 622 l 263 613 b 235 610 261 610 247 607 b 224 632 228 614 224 618 l 224 703 b 225 749 224 718 222 733 z m 197 754 b 196 703 194 738 196 719 l 196 632 b 224 585 196 606 207 592 l 225 583 b 283 593 239 579 268 578 b 300 671 304 611 300 646 l 300 738 b 275 790 300 760 294 779 b 222 790 263 796 233 797 b 197 754 207 781 200 769 z "},"®":{"ha":736,"x_min":0,"x_max":0,"o":"m 75 1096 l 75 0 l 89 -14 l 314 -14 l 328 0 l 328 432 l 340 432 l 463 -4 l 476 -14 l 693 -14 l 707 4 l 588 454 b 675 660 671 494 675 542 l 675 838 b 671 983 675 904 675 950 b 422 1110 651 1114 526 1110 l 89 1110 z m 103 1082 l 422 1082 b 610 1049 469 1082 575 1083 b 647 838 658 999 647 900 l 647 660 b 565 475 647 538 643 510 l 557 458 l 675 14 l 488 14 l 365 450 l 351 460 l 314 460 l 300 446 l 300 14 l 103 14 z m 329 646 l 329 904 b 419 878 356 904 403 903 b 424 678 432 860 432 696 b 372 646 414 657 400 646 z m 301 632 l 315 618 l 372 618 b 449 667 411 618 435 636 b 442 894 460 690 463 865 b 315 932 415 933 357 932 l 301 918 z "},"©":{"ha":735,"x_min":0,"x_max":0,"o":"m 674 686 l 674 828 b 674 929 674 867 674 900 b 596 1097 672 1000 668 1058 b 147 1094 508 1143 232 1146 b 75 886 71 1047 75 963 l 75 225 b 157 8 75 132 61 65 b 600 13 235 -37 513 -35 b 675 249 688 61 675 165 l 675 582 l 661 596 l 350 596 l 336 582 l 336 390 l 350 376 l 426 376 l 426 343 b 424 232 426 292 428 256 b 346 193 418 190 385 175 b 324 321 314 208 324 293 l 324 786 b 342 913 324 811 317 894 b 400 914 356 922 389 921 b 422 875 414 907 419 897 b 425 767 426 851 425 817 l 425 686 l 439 672 l 660 672 z m 646 700 l 453 700 l 453 767 b 414 939 453 815 465 911 b 325 935 394 950 350 953 b 296 786 288 907 296 826 l 296 321 b 297 225 296 279 294 247 b 418 169 306 165 369 140 b 454 343 467 199 454 296 l 454 390 l 440 404 l 364 404 l 364 568 l 647 568 l 647 249 b 586 38 647 178 661 79 b 171 33 507 -6 240 -7 b 103 225 88 82 103 143 l 103 886 b 161 1069 103 951 97 1031 b 582 1072 238 1117 503 1114 b 640 997 618 1053 633 1032 b 646 828 651 943 646 882 z "},"Á":{"ha":696,"x_min":0,"x_max":0,"o":"m 238 1194 b 417 1249 294 1213 360 1228 b 497 1367 464 1267 532 1303 b 439 1406 483 1392 460 1404 b 350 1356 411 1408 376 1381 b 224 1218 306 1314 264 1264 z m 278 1236 b 436 1378 304 1265 400 1381 b 472 1353 450 1376 465 1368 b 474 1315 478 1343 481 1331 b 278 1236 458 1282 317 1247 z m 193 1100 l 26 1 l 40 -14 l 260 -14 l 274 -1 l 304 247 l 406 247 l 429 -1 l 443 -14 l 676 -14 l 690 1 l 525 1100 l 511 1113 l 207 1113 z m 219 1085 l 499 1085 l 660 14 l 456 14 l 432 263 l 418 275 l 292 275 l 278 263 l 247 14 l 57 14 z m 358 738 l 385 465 l 328 465 z m 299 453 l 313 438 l 400 438 l 414 453 l 379 806 l 374 947 l 346 949 l 338 806 z "},"Â":{"ha":696,"x_min":0,"x_max":0,"o":"m 340 1356 l 157 1218 l 168 1193 l 243 1211 b 353 1239 279 1219 315 1233 l 357 1240 b 413 1225 357 1240 411 1226 b 547 1193 457 1214 503 1204 l 558 1218 l 357 1356 z m 349 1328 l 479 1238 b 421 1253 467 1242 440 1249 l 392 1260 l 371 1265 l 364 1267 b 357 1268 360 1268 357 1268 b 351 1268 356 1268 354 1268 l 347 1267 b 228 1236 307 1260 267 1246 z m 189 1100 l 22 1 l 36 -14 l 256 -14 l 269 -1 l 300 247 l 401 247 l 425 -1 l 439 -14 l 672 -14 l 686 1 l 521 1100 l 507 1113 l 203 1113 z m 215 1085 l 494 1085 l 656 14 l 451 14 l 428 263 l 414 275 l 288 275 l 274 263 l 243 14 l 53 14 z m 353 743 l 381 465 l 324 465 z m 294 453 l 308 438 l 396 438 l 410 453 l 375 806 l 369 947 l 342 949 l 332 806 z "},"Ä":{"ha":696,"x_min":0,"x_max":0,"o":"m 243 1344 b 242 1200 174 1319 179 1229 b 346 1271 290 1178 344 1219 b 243 1344 347 1321 292 1368 z m 253 1319 l 254 1319 b 294 1314 267 1325 279 1325 b 253 1225 350 1275 297 1206 b 253 1319 211 1244 208 1300 z m 421 1344 b 425 1200 354 1314 364 1228 b 531 1276 476 1182 531 1224 l 531 1278 b 421 1344 531 1326 469 1372 z m 433 1319 l 435 1319 b 503 1275 465 1336 499 1304 b 436 1225 503 1243 468 1214 b 433 1319 396 1244 390 1296 z m 192 1100 l 25 1 l 39 -14 l 258 -14 l 272 -1 l 303 247 l 404 247 l 428 -1 l 442 -14 l 675 -14 l 689 1 l 524 1100 l 510 1113 l 206 1113 z m 218 1085 l 497 1085 l 658 14 l 454 14 l 431 263 l 417 275 l 290 275 l 276 263 l 246 14 l 56 14 z m 357 738 l 383 465 l 326 465 z m 297 453 l 311 438 l 399 438 l 413 453 l 378 806 l 372 947 l 344 949 l 336 806 z "},"À":{"ha":696,"x_min":0,"x_max":0,"o":"m 506 1218 b 368 1338 461 1260 417 1301 b 222 1340 322 1372 263 1415 b 219 1281 211 1319 211 1296 b 493 1194 249 1222 440 1204 z m 453 1229 b 244 1292 411 1236 264 1254 b 247 1326 240 1300 240 1315 b 281 1354 256 1343 267 1351 b 453 1229 311 1358 429 1251 z m 193 1100 l 26 1 l 40 -14 l 260 -14 l 274 -1 l 304 247 l 406 247 l 429 -1 l 443 -14 l 676 -14 l 690 1 l 525 1100 l 511 1113 l 207 1113 z m 219 1085 l 499 1085 l 660 14 l 456 14 l 432 263 l 418 275 l 292 275 l 278 263 l 247 14 l 57 14 z m 358 738 l 385 465 l 328 465 z m 299 453 l 313 438 l 400 438 l 414 453 l 379 806 l 374 947 l 346 949 l 338 806 z "},"Å":{"ha":696,"x_min":0,"x_max":0,"o":"m 336 1363 b 278 1271 293 1349 274 1310 b 404 1207 285 1210 351 1174 b 336 1363 496 1263 432 1396 z m 344 1338 b 396 1331 363 1344 382 1342 b 340 1226 458 1283 393 1199 b 344 1338 294 1250 292 1319 z m 338 1269 b 347 1303 332 1281 333 1292 b 368 1307 350 1306 358 1310 b 383 1264 383 1303 394 1278 b 360 1254 379 1258 369 1253 b 338 1269 353 1254 344 1260 z m 313 1257 l 314 1254 b 414 1296 351 1197 432 1235 b 328 1324 403 1332 358 1350 b 313 1257 304 1301 303 1276 z m 193 1100 l 26 1 l 40 -14 l 260 -14 l 274 -1 l 304 247 l 406 247 l 429 -1 l 443 -14 l 676 -14 l 690 1 l 525 1100 l 511 1113 l 207 1113 z m 219 1085 l 499 1085 l 660 14 l 456 14 l 432 263 l 418 275 l 292 275 l 278 263 l 247 14 l 57 14 z m 358 738 l 385 465 l 328 465 z m 299 453 l 313 438 l 400 438 l 414 453 l 379 806 l 374 947 l 346 949 l 338 806 z "},"Ã":{"ha":696,"x_min":0,"x_max":0,"o":"m 396 1325 b 329 1340 378 1332 356 1339 b 175 1231 251 1346 219 1304 l 194 1213 b 404 1194 271 1260 326 1197 b 560 1306 485 1190 519 1219 l 540 1322 b 396 1325 472 1279 456 1300 z m 385 1299 b 514 1278 432 1279 460 1257 b 224 1254 433 1147 321 1281 b 385 1299 268 1319 318 1326 z m 197 1100 l 31 1 l 44 -14 l 265 -14 l 279 -1 l 308 247 l 410 247 l 433 -1 l 447 -14 l 681 -14 l 694 1 l 531 1100 l 517 1113 l 211 1113 z m 224 1085 l 504 1085 l 664 14 l 460 14 l 436 263 l 422 275 l 296 275 l 282 263 l 253 14 l 61 14 z m 363 743 l 389 465 l 332 465 z m 303 453 l 317 438 l 404 438 l 418 453 l 385 806 l 378 947 l 350 949 l 342 806 z "},"Ç":{"ha":669,"x_min":0,"x_max":0,"o":"m 281 1200 l 281 1024 b 142 994 215 1021 165 1007 b 75 779 64 953 75 853 l 75 732 b 261 486 75 579 64 493 b 360 483 279 486 347 488 b 381 406 386 476 381 425 b 358 313 381 376 388 329 b 319 313 350 307 328 307 b 297 371 300 324 297 340 l 297 444 l 283 458 l 89 458 l 75 444 l 75 383 b 108 181 75 272 76 215 b 283 132 146 139 239 132 l 283 -97 l 297 -111 l 385 -111 l 399 -97 l 399 132 b 518 154 443 132 501 147 b 603 263 574 176 593 207 b 563 654 615 343 628 599 b 369 683 521 689 425 681 b 304 740 318 686 304 692 b 321 839 304 761 300 826 b 357 842 328 843 351 844 b 381 740 390 825 383 769 l 394 725 l 582 725 l 596 739 b 567 967 597 799 604 918 b 392 1024 533 1010 449 1024 l 392 1200 l 378 1214 l 294 1214 z m 308 1186 l 364 1186 l 364 1010 l 378 996 b 544 950 435 999 518 985 b 568 753 574 913 571 801 l 410 753 b 371 867 413 793 413 844 b 307 861 354 875 321 869 b 276 740 272 839 276 775 b 276 725 276 736 276 731 b 546 632 282 606 482 686 b 575 268 597 588 586 336 b 507 179 568 221 554 199 b 386 160 492 174 425 157 l 371 146 l 371 -83 l 311 -83 l 311 146 l 297 160 b 128 200 257 158 161 163 b 103 383 106 225 103 267 l 103 431 l 269 431 l 269 371 b 306 288 269 340 272 308 b 372 288 322 278 356 278 b 408 406 414 314 408 364 b 408 433 408 415 408 425 b 325 514 407 500 388 514 b 103 732 104 517 103 536 l 103 779 b 156 969 103 840 92 936 b 294 996 175 981 225 996 l 308 1010 z "},"É":{"ha":653,"x_min":0,"x_max":0,"o":"m 215 1192 l 313 1221 b 478 1301 357 1235 458 1257 b 475 1363 488 1324 485 1346 b 417 1403 460 1386 439 1400 b 328 1353 389 1406 354 1378 b 201 1215 283 1311 242 1261 z m 256 1233 b 347 1333 286 1267 315 1301 b 450 1349 376 1361 422 1403 b 453 1313 456 1340 458 1328 b 256 1233 436 1278 294 1246 z m 75 1096 l 75 0 l 89 -14 l 596 -14 l 610 0 l 610 196 l 596 210 l 318 210 l 318 458 l 318 464 l 550 464 l 564 478 l 564 506 l 564 679 l 550 693 l 513 693 l 318 693 l 318 900 l 578 900 l 592 914 l 592 1096 l 578 1110 l 89 1110 z m 103 1082 l 564 1082 l 564 928 l 304 928 l 290 914 l 290 679 l 304 665 l 513 665 l 536 665 l 536 506 l 536 492 l 304 492 l 290 478 l 290 458 l 290 196 l 304 182 l 582 182 l 582 14 l 103 14 z "},"Ê":{"ha":653,"x_min":0,"x_max":0,"o":"m 215 1192 l 313 1221 b 478 1301 357 1235 458 1257 b 475 1363 488 1324 485 1346 b 417 1403 460 1386 439 1400 b 328 1353 389 1406 354 1378 b 201 1215 283 1311 242 1261 z m 256 1233 b 347 1333 286 1267 315 1301 b 450 1349 376 1361 422 1403 b 453 1313 456 1340 458 1328 b 256 1233 436 1278 294 1246 z m 75 1096 l 75 0 l 89 -14 l 596 -14 l 610 0 l 610 196 l 596 210 l 318 210 l 318 458 l 318 464 l 550 464 l 564 478 l 564 506 l 564 679 l 550 693 l 513 693 l 318 693 l 318 900 l 578 900 l 592 914 l 592 1096 l 578 1110 l 89 1110 z m 103 1082 l 564 1082 l 564 928 l 304 928 l 290 914 l 290 679 l 304 665 l 513 665 l 536 665 l 536 506 l 536 492 l 304 492 l 290 478 l 290 458 l 290 196 l 304 182 l 582 182 l 582 14 l 103 14 z "},"Ë":{"ha":653,"x_min":0,"x_max":0,"o":"m 322 1353 l 139 1215 l 150 1190 b 335 1235 211 1206 272 1225 l 339 1236 b 394 1222 339 1236 388 1225 b 529 1190 422 1213 508 1196 l 540 1215 l 339 1353 z m 331 1325 l 461 1235 b 403 1250 450 1239 422 1243 b 374 1257 403 1250 388 1253 l 353 1261 l 344 1263 b 339 1264 342 1264 339 1264 b 335 1264 338 1264 336 1264 l 329 1263 b 208 1233 289 1253 249 1243 z m 75 1096 l 75 0 l 89 -14 l 596 -14 l 610 0 l 610 196 l 596 210 l 318 210 l 318 458 l 318 464 l 550 464 l 564 478 l 564 506 l 564 679 l 550 693 l 513 693 l 318 693 l 318 900 l 578 900 l 592 914 l 592 1096 l 578 1110 l 89 1110 z m 103 1082 l 564 1082 l 564 928 l 304 928 l 290 914 l 290 679 l 304 665 l 513 665 l 536 665 l 536 506 l 536 492 l 304 492 l 290 478 l 290 458 l 290 196 l 304 182 l 582 182 l 582 14 l 103 14 z "},"È":{"ha":653,"x_min":0,"x_max":0,"o":"m 485 1215 b 253 1379 450 1247 306 1388 b 197 1278 211 1372 178 1317 b 472 1192 226 1219 419 1200 z m 431 1226 b 222 1289 389 1233 242 1251 b 258 1351 211 1313 235 1347 b 431 1226 289 1357 407 1249 z m 75 1096 l 75 0 l 89 -14 l 596 -14 l 610 0 l 610 196 l 596 210 l 318 210 l 318 458 l 318 464 l 550 464 l 564 478 l 564 506 l 564 679 l 550 693 l 513 693 l 318 693 l 318 900 l 578 900 l 592 914 l 592 1096 l 578 1110 l 89 1110 z m 103 1082 l 564 1082 l 564 928 l 304 928 l 290 914 l 290 679 l 304 665 l 513 665 l 536 665 l 536 506 l 536 492 l 304 492 l 290 478 l 290 458 l 290 196 l 304 182 l 582 182 l 582 14 l 103 14 z "},"Í":{"ha":374,"x_min":0,"x_max":0,"o":"m 68 1199 l 165 1226 b 329 1307 207 1239 310 1264 b 269 1408 350 1353 319 1404 b 182 1358 242 1411 208 1383 b 54 1222 138 1317 96 1267 z m 108 1239 b 267 1381 135 1269 231 1383 b 304 1318 297 1378 317 1346 b 108 1239 289 1285 146 1250 z m 299 1114 l 89 1114 l 75 1100 l 75 0 l 89 -14 l 299 -14 l 313 0 l 313 1100 z m 285 1086 l 285 14 l 103 14 l 103 1086 z "},"Î":{"ha":374,"x_min":0,"x_max":0,"o":"m 175 1358 l -8 1222 l 3 1197 l 79 1214 b 188 1242 115 1222 151 1235 l 192 1243 b 247 1228 192 1243 246 1229 b 306 1214 267 1224 293 1218 l 382 1197 l 393 1222 l 192 1358 z m 183 1331 l 317 1240 l 314 1242 b 256 1256 300 1246 275 1251 l 226 1263 l 206 1268 l 199 1269 b 192 1271 194 1271 192 1271 b 188 1271 190 1271 189 1271 l 182 1269 b 60 1239 140 1260 101 1247 z m 299 1114 l 89 1114 l 75 1100 l 75 0 l 89 -14 l 299 -14 l 313 0 l 313 1100 z m 285 1086 l 285 14 l 103 14 l 103 1086 z "},"Ï":{"ha":374,"x_min":0,"x_max":0,"o":"m 75 1347 b 74 1203 6 1322 11 1232 b 143 1339 151 1167 222 1288 b 75 1347 119 1354 96 1358 z m 85 1322 l 86 1322 b 126 1317 99 1328 113 1328 b 85 1228 181 1283 131 1207 b 85 1322 43 1247 40 1303 z m 253 1347 b 258 1203 189 1314 196 1228 b 363 1279 310 1182 363 1228 l 363 1281 b 253 1347 363 1329 303 1372 z m 265 1322 l 267 1322 b 335 1278 297 1339 331 1307 b 311 1235 335 1265 329 1247 b 265 1322 254 1194 200 1288 z m 299 1114 l 89 1114 l 75 1100 l 75 0 l 89 -14 l 299 -14 l 313 0 l 313 1100 z m 285 1086 l 285 14 l 103 14 l 103 1086 z "},"Ì":{"ha":374,"x_min":0,"x_max":0,"o":"m 335 1222 b 106 1385 300 1254 160 1393 b 50 1283 63 1378 29 1324 b 322 1199 79 1224 268 1207 z m 282 1233 b 75 1294 240 1240 94 1257 b 111 1357 63 1319 86 1353 b 282 1233 142 1363 258 1254 z m 299 1114 l 89 1114 l 75 1100 l 75 0 l 89 -14 l 299 -14 l 313 0 l 313 1100 z m 285 1086 l 285 14 l 103 14 l 103 1086 z "},"Ñ":{"ha":732,"x_min":0,"x_max":0,"o":"m 401 1328 b 181 1235 292 1372 239 1335 l 200 1217 b 411 1200 276 1264 333 1203 b 565 1311 490 1197 525 1225 l 544 1328 b 401 1328 478 1283 461 1304 z m 390 1303 b 519 1283 438 1283 465 1261 b 229 1260 440 1156 325 1285 b 390 1303 274 1325 322 1329 z m 447 665 l 342 1100 l 328 1111 l 89 1111 l 75 1097 l 75 0 l 89 -14 l 290 -14 l 304 -1 b 299 431 313 115 304 318 l 403 -3 l 417 -14 l 657 -14 l 671 0 l 671 1097 l 657 1111 l 457 1111 l 443 1099 b 447 665 433 982 442 778 z m 428 14 l 315 483 l 289 650 l 261 647 l 267 511 b 278 14 267 511 288 185 l 103 14 l 103 1083 l 317 1083 l 431 614 l 457 447 l 485 450 l 479 586 b 469 1083 479 586 458 913 l 643 1083 l 643 14 z "},"Ó":{"ha":731,"x_min":0,"x_max":0,"o":"m 249 1218 l 344 1246 b 511 1326 389 1258 490 1282 b 449 1428 528 1374 500 1424 b 361 1379 421 1431 388 1404 b 235 1242 317 1336 275 1286 z m 288 1258 b 446 1400 314 1289 410 1403 b 486 1338 478 1397 496 1367 b 288 1258 468 1303 328 1271 z m 276 1128 b 146 1089 239 1124 182 1113 b 75 876 63 1038 75 960 l 75 249 b 154 10 75 167 72 57 b 594 15 233 -35 506 -31 b 669 231 681 60 669 150 l 669 888 b 614 1082 669 949 665 1038 b 276 1128 549 1138 333 1133 z m 279 1100 b 597 1060 340 1106 542 1107 b 642 888 639 1024 642 939 l 642 231 b 581 40 642 163 653 78 b 168 35 500 -3 238 -6 b 103 249 99 75 103 179 l 103 876 b 108 996 103 915 100 958 b 279 1100 126 1072 214 1093 z m 322 875 b 338 913 324 897 329 907 b 399 914 350 919 382 924 b 424 779 433 896 424 810 l 424 342 b 424 275 424 315 424 293 b 397 200 424 249 428 213 b 322 336 304 164 322 285 l 322 774 b 322 875 322 819 319 851 z m 296 878 b 294 774 293 853 294 819 l 294 336 b 296 240 294 299 293 265 b 408 175 303 178 347 151 b 451 275 453 192 451 235 b 451 342 451 293 451 315 l 451 779 b 413 939 451 825 463 913 b 324 935 385 954 342 947 b 296 878 304 922 297 903 z "},"Ô":{"ha":731,"x_min":0,"x_max":0,"o":"m 354 1378 l 172 1240 l 183 1215 l 258 1233 b 368 1261 294 1242 331 1256 l 372 1263 b 426 1247 372 1263 425 1249 b 563 1215 471 1236 518 1226 l 574 1240 l 371 1378 z m 363 1350 l 494 1260 b 435 1275 475 1265 454 1271 l 406 1282 l 386 1288 l 379 1289 b 372 1290 375 1290 372 1290 b 367 1290 371 1290 369 1290 l 363 1289 b 242 1258 322 1282 282 1268 z m 276 1128 b 146 1089 239 1124 182 1113 b 75 876 63 1038 75 960 l 75 249 b 154 10 75 167 72 57 b 594 15 233 -35 506 -31 b 669 231 681 60 669 150 l 669 888 b 614 1082 669 949 665 1038 b 276 1128 549 1138 333 1133 z m 279 1100 b 597 1060 340 1106 542 1107 b 642 888 639 1024 642 939 l 642 231 b 581 40 642 163 653 78 b 168 35 500 -3 238 -6 b 103 249 99 75 103 179 l 103 876 b 108 996 103 915 100 958 b 279 1100 126 1072 214 1093 z m 322 875 b 338 913 324 897 329 907 b 399 914 350 919 382 924 b 424 779 433 896 424 810 l 424 342 b 424 275 424 315 424 293 b 397 200 424 249 428 213 b 322 336 304 164 322 285 l 322 774 b 322 875 322 819 319 851 z m 296 878 b 294 774 293 853 294 819 l 294 336 b 296 240 294 299 293 265 b 408 175 303 178 347 151 b 451 275 453 192 451 235 b 451 342 451 293 451 315 l 451 779 b 413 939 451 825 463 913 b 324 935 385 954 342 947 b 296 878 304 922 297 903 z "},"Ö":{"ha":731,"x_min":0,"x_max":0,"o":"m 254 1367 b 253 1222 185 1340 190 1251 b 357 1293 303 1199 356 1242 b 254 1367 358 1343 304 1392 z m 264 1342 l 265 1342 b 307 1336 278 1347 292 1347 b 264 1247 360 1297 310 1226 b 264 1342 222 1267 219 1322 z m 433 1367 b 388 1281 396 1350 381 1313 b 507 1232 400 1226 460 1199 b 433 1367 593 1292 503 1406 z m 446 1342 l 447 1342 b 490 1254 486 1363 549 1294 b 446 1342 433 1214 379 1307 z m 276 1128 b 146 1089 239 1124 182 1113 b 75 876 63 1038 75 960 l 75 249 b 154 10 75 167 72 57 b 594 15 233 -35 506 -31 b 669 231 681 60 669 150 l 669 888 b 614 1082 669 949 665 1038 b 276 1128 549 1138 333 1133 z m 279 1100 b 597 1060 340 1106 542 1107 b 642 888 639 1024 642 939 l 642 231 b 581 40 642 163 653 78 b 168 35 500 -3 238 -6 b 103 249 99 75 103 179 l 103 876 b 108 996 103 915 100 958 b 279 1100 126 1072 214 1093 z m 322 875 b 338 913 324 897 329 907 b 399 914 350 919 382 924 b 424 779 433 896 424 810 l 424 342 b 424 275 424 315 424 293 b 397 200 424 249 428 213 b 322 336 304 164 322 285 l 322 774 b 322 875 322 819 319 851 z m 296 878 b 294 774 293 853 294 819 l 294 336 b 296 240 294 299 293 265 b 408 175 303 178 347 151 b 451 275 453 192 451 235 b 451 342 451 293 451 315 l 451 779 b 413 939 451 825 463 913 b 324 935 385 954 342 947 b 296 878 304 922 297 903 z "},"Ò":{"ha":731,"x_min":0,"x_max":0,"o":"m 517 1243 b 331 1392 460 1292 397 1356 b 233 1363 292 1413 254 1407 b 231 1301 219 1342 222 1318 b 403 1233 256 1256 357 1246 l 506 1218 z m 463 1253 l 408 1261 b 256 1315 374 1267 272 1283 b 257 1347 250 1324 250 1338 l 258 1350 b 292 1376 265 1365 278 1375 b 463 1253 319 1381 439 1272 z m 276 1128 b 146 1089 239 1124 182 1113 b 75 876 63 1038 75 960 l 75 249 b 154 10 75 167 72 57 b 594 15 233 -35 506 -31 b 669 231 681 60 669 150 l 669 888 b 614 1082 669 949 665 1038 b 276 1128 549 1138 333 1133 z m 279 1100 b 597 1060 340 1106 542 1107 b 642 888 639 1024 642 939 l 642 231 b 581 40 642 163 653 78 b 168 35 500 -3 238 -6 b 103 249 99 75 103 179 l 103 876 b 108 996 103 915 100 958 b 279 1100 126 1072 214 1093 z m 322 875 b 338 913 324 897 329 907 b 399 914 350 919 382 924 b 424 779 433 896 424 810 l 424 342 b 424 275 424 315 424 293 b 397 200 424 249 428 213 b 322 336 304 164 322 285 l 322 774 b 322 875 322 819 319 851 z m 296 878 b 294 774 293 853 294 819 l 294 336 b 296 240 294 299 293 265 b 408 175 303 178 347 151 b 451 275 453 192 451 235 b 451 342 451 293 451 315 l 451 779 b 413 939 451 825 463 913 b 324 935 385 954 342 947 b 296 878 304 922 297 903 z "},"Õ":{"ha":731,"x_min":0,"x_max":0,"o":"m 401 1347 b 335 1363 383 1354 361 1361 b 181 1253 258 1368 225 1326 l 200 1235 b 411 1218 276 1282 333 1221 b 565 1328 490 1215 525 1242 l 546 1344 b 401 1347 478 1301 461 1322 z m 392 1321 b 519 1300 438 1303 465 1279 b 229 1278 440 1172 326 1303 b 392 1321 274 1342 324 1349 z m 276 1128 b 146 1089 239 1124 182 1113 b 75 876 63 1038 75 960 l 75 249 b 154 10 75 167 72 57 b 594 15 233 -35 506 -31 b 669 231 681 60 669 150 l 669 888 b 614 1082 669 949 665 1038 b 276 1128 549 1138 333 1133 z m 279 1100 b 597 1060 340 1106 542 1107 b 642 888 639 1024 642 939 l 642 231 b 581 40 642 163 653 78 b 168 35 500 -3 238 -6 b 103 249 99 75 103 179 l 103 876 b 108 996 103 915 100 958 b 279 1100 126 1072 214 1093 z m 322 875 b 338 913 324 897 329 907 b 399 914 350 919 382 924 b 424 779 433 896 424 810 l 424 342 b 424 275 424 315 424 293 b 397 200 424 249 428 213 b 322 336 304 164 322 285 l 322 774 b 322 875 322 819 319 851 z m 296 878 b 294 774 293 853 294 819 l 294 336 b 296 240 294 299 293 265 b 408 175 303 178 347 151 b 451 275 453 192 451 235 b 451 342 451 293 451 315 l 451 779 b 413 939 451 825 463 913 b 324 935 385 954 342 947 b 296 878 304 922 297 903 z "},"Ú":{"ha":732,"x_min":0,"x_max":0,"o":"m 249 1190 l 344 1219 b 510 1300 388 1232 490 1254 b 508 1361 519 1322 518 1343 b 449 1401 493 1386 471 1399 b 235 1214 390 1407 271 1254 z m 288 1232 b 446 1374 315 1263 408 1378 b 483 1347 460 1372 475 1364 b 485 1311 489 1339 492 1328 b 418 1271 479 1299 454 1283 b 288 1232 376 1256 331 1244 z m 307 1110 l 89 1110 l 75 1096 l 75 257 b 156 8 75 169 65 61 b 596 8 240 -40 524 -33 b 671 244 675 56 671 167 l 671 1096 l 657 1110 l 439 1110 l 425 1096 l 425 338 b 425 275 425 313 425 292 b 399 194 425 247 426 210 b 343 193 382 185 356 186 b 321 329 314 208 321 304 l 321 1096 z m 293 1082 l 293 329 b 329 168 293 288 283 193 b 413 169 350 157 388 156 b 453 338 465 200 453 286 l 453 1082 l 643 1082 l 643 244 b 582 33 643 179 649 72 b 169 33 518 -6 246 -11 b 103 257 92 78 103 181 l 103 1082 z "},"Û":{"ha":732,"x_min":0,"x_max":0,"o":"m 354 1351 l 172 1214 l 183 1189 b 368 1233 244 1204 306 1225 l 372 1235 b 426 1221 372 1235 421 1224 b 563 1189 456 1211 540 1194 l 574 1214 l 371 1351 z m 363 1324 l 494 1233 b 435 1249 475 1239 454 1240 b 406 1256 435 1249 419 1253 l 386 1260 l 378 1261 b 372 1263 375 1263 372 1263 b 368 1263 371 1263 369 1263 l 363 1261 b 242 1232 322 1251 282 1242 z m 307 1110 l 89 1110 l 75 1096 l 75 257 b 156 8 75 169 65 61 b 596 8 240 -40 524 -33 b 671 244 675 56 671 167 l 671 1096 l 657 1110 l 439 1110 l 425 1096 l 425 338 b 425 275 425 313 425 292 b 399 194 425 247 426 210 b 343 193 382 185 356 186 b 321 329 314 208 321 304 l 321 1096 z m 293 1082 l 293 329 b 329 168 293 288 283 193 b 413 169 350 157 388 156 b 453 338 465 200 453 286 l 453 1082 l 643 1082 l 643 244 b 582 33 643 179 649 72 b 169 33 518 -6 246 -11 b 103 257 92 78 103 181 l 103 1082 z "},"Ü":{"ha":732,"x_min":0,"x_max":0,"o":"m 254 1340 b 204 1257 218 1326 199 1289 b 251 1194 210 1226 231 1204 l 253 1194 b 357 1267 301 1172 356 1214 b 254 1340 358 1319 306 1360 z m 265 1315 b 307 1310 278 1319 292 1319 b 307 1225 338 1290 336 1244 b 264 1219 292 1217 278 1215 b 232 1263 249 1228 236 1243 b 265 1315 228 1281 240 1306 z m 435 1340 b 438 1194 365 1307 372 1221 l 439 1193 b 508 1206 465 1183 490 1192 b 435 1340 588 1264 510 1376 z m 446 1315 b 486 1314 457 1321 471 1324 b 449 1219 546 1275 499 1206 b 446 1315 407 1242 399 1293 z m 307 1110 l 89 1110 l 75 1096 l 75 257 b 156 8 75 169 65 61 b 596 8 240 -40 524 -33 b 671 244 675 56 671 167 l 671 1096 l 657 1110 l 439 1110 l 425 1096 l 425 338 b 425 275 425 313 425 292 b 399 194 425 247 426 210 b 343 193 382 185 356 186 b 321 329 314 208 321 304 l 321 1096 z m 293 1082 l 293 329 b 329 168 293 288 283 193 b 413 169 350 157 388 156 b 453 338 465 200 453 286 l 453 1082 l 643 1082 l 643 244 b 582 33 643 179 649 72 b 169 33 518 -6 246 -11 b 103 257 92 78 103 181 l 103 1082 z "},"Ù":{"ha":732,"x_min":0,"x_max":0,"o":"m 515 1214 b 331 1365 458 1267 399 1328 b 233 1336 292 1386 254 1381 b 231 1275 219 1314 222 1290 b 503 1190 261 1218 449 1200 z m 463 1225 b 257 1321 426 1232 213 1254 l 258 1324 b 292 1350 265 1339 276 1347 b 463 1225 321 1356 439 1246 z m 307 1110 l 89 1110 l 75 1096 l 75 257 b 156 8 75 169 65 61 b 596 8 240 -40 524 -33 b 671 244 675 56 671 167 l 671 1096 l 657 1110 l 439 1110 l 425 1096 l 425 338 b 425 275 425 313 425 292 b 399 194 425 247 426 210 b 343 193 382 185 356 186 b 321 329 314 208 321 304 l 321 1096 z m 293 1082 l 293 329 b 329 168 293 288 283 193 b 413 169 350 157 388 156 b 453 338 465 200 453 286 l 453 1082 l 643 1082 l 643 244 b 582 33 643 179 649 72 b 169 33 518 -6 246 -11 b 103 257 92 78 103 181 l 103 1082 z "},"Ÿ":{"ha":843,"x_min":0,"x_max":0,"o":"m 304 1199 l 401 1226 b 567 1307 444 1239 547 1264 b 564 1369 576 1329 576 1351 b 506 1408 551 1394 526 1407 b 418 1358 478 1411 444 1383 b 290 1222 374 1317 332 1267 z m 344 1239 b 503 1381 371 1268 467 1383 b 539 1357 517 1379 532 1371 l 540 1354 b 542 1318 546 1344 549 1333 b 344 1239 526 1285 382 1250 z m 307 1110 l 82 1110 l 69 1092 l 297 435 l 297 0 l 311 -14 l 533 -14 l 547 0 l 547 435 l 789 1092 l 776 1110 l 560 1110 l 547 1100 l 443 792 l 433 750 l 425 786 l 319 1100 z m 297 1082 l 397 778 l 419 690 l 447 690 l 471 783 l 569 1082 l 757 1082 l 521 442 l 519 438 l 519 14 l 325 14 l 325 438 l 324 442 l 101 1082 z "},"á":{"ha":658,"x_min":0,"x_max":0,"o":"m 208 936 l 304 964 b 471 1046 349 976 451 1001 b 468 1107 481 1068 478 1090 b 408 1147 453 1132 431 1144 b 194 960 350 1153 231 1000 z m 246 976 b 406 1119 274 1008 368 1124 b 443 1093 419 1118 435 1110 b 446 1057 449 1085 451 1072 b 246 976 428 1022 288 989 z m 371 563 b 143 544 319 568 207 575 b 65 331 63 506 65 406 l 65 222 b 132 1 65 154 61 42 b 533 4 193 -33 481 -22 b 599 208 604 40 599 142 l 599 628 b 524 844 599 703 601 804 b 140 839 453 882 206 881 b 75 601 69 793 75 674 l 89 588 l 279 588 l 293 601 b 293 632 293 613 293 622 b 351 683 294 661 315 703 b 371 563 379 668 372 589 z m 383 533 l 399 547 b 365 708 400 590 413 682 b 304 707 351 715 326 719 b 265 615 268 685 265 651 l 103 615 b 154 817 103 672 99 782 b 510 819 210 853 447 851 b 571 628 576 785 571 690 l 571 208 b 519 29 571 154 576 58 b 146 26 475 6 197 -3 b 93 222 89 58 93 167 l 93 331 b 154 519 93 392 89 488 b 383 533 218 550 340 539 z m 294 331 b 331 382 297 360 306 376 l 332 382 b 364 372 342 385 356 382 b 368 176 374 343 372 203 b 306 161 363 156 321 149 b 294 331 288 176 293 310 z m 267 333 b 289 139 264 299 257 167 b 388 154 313 118 369 125 b 393 372 404 182 401 335 b 325 410 388 401 354 415 b 267 333 281 400 269 365 z "},"â":{"ha":658,"x_min":0,"x_max":0,"o":"m 314 1097 l 132 960 l 143 935 b 328 979 204 950 265 971 l 332 981 b 388 967 332 981 381 969 b 522 935 421 956 493 942 l 533 960 l 331 1097 z m 322 1069 l 454 979 b 396 994 435 985 415 988 b 367 1001 396 994 381 997 l 346 1006 l 338 1007 b 332 1008 335 1008 332 1008 b 328 1008 331 1008 329 1008 l 322 1007 b 201 978 282 997 242 988 z m 371 563 b 143 544 319 568 207 575 b 65 331 63 506 65 406 l 65 222 b 132 1 65 154 61 42 b 533 4 193 -33 481 -22 b 599 208 604 40 599 142 l 599 628 b 524 844 599 703 601 804 b 140 839 453 882 206 881 b 75 601 69 793 75 674 l 89 588 l 279 588 l 293 601 b 293 632 293 613 293 622 b 351 683 294 661 315 703 b 371 563 379 668 372 589 z m 383 533 l 399 547 b 365 708 400 590 413 682 b 304 707 351 715 326 719 b 265 615 268 685 265 651 l 103 615 b 154 817 103 672 99 782 b 510 819 210 853 447 851 b 571 628 576 785 571 690 l 571 208 b 519 29 571 154 576 58 b 146 26 475 6 197 -3 b 93 222 89 58 93 167 l 93 331 b 154 519 93 392 89 488 b 383 533 218 550 340 539 z m 294 331 b 331 382 297 360 306 376 l 332 382 b 364 372 342 385 356 382 b 368 176 374 343 372 203 b 306 161 363 156 321 149 b 294 331 288 176 293 310 z m 267 333 b 289 139 264 299 257 167 b 388 154 313 118 369 125 b 393 372 404 182 401 335 b 325 410 388 401 354 415 b 267 333 281 400 269 365 z "},"ä":{"ha":658,"x_min":0,"x_max":0,"o":"m 214 1086 b 211 940 146 1058 146 972 l 213 940 b 317 1013 261 917 315 960 b 214 1086 318 1065 264 1107 z m 225 1061 b 267 1056 238 1065 251 1065 b 267 971 297 1036 296 990 b 224 965 251 963 238 961 b 192 1008 210 974 196 989 b 225 1061 188 1026 200 1050 z m 394 1086 b 397 940 326 1053 332 967 l 399 939 b 463 1082 474 910 553 1024 l 461 1083 b 394 1086 438 1099 413 1094 z m 406 1061 b 447 1060 415 1067 431 1068 b 408 965 506 1014 454 953 b 406 1061 365 988 360 1038 z m 371 563 b 143 544 319 568 207 575 b 65 331 63 506 65 406 l 65 222 b 132 1 65 154 61 42 b 533 4 193 -33 481 -22 b 599 208 604 40 599 142 l 599 628 b 524 844 599 703 601 804 b 140 839 453 882 206 881 b 75 601 69 793 75 674 l 89 588 l 279 588 l 293 601 b 293 632 293 613 293 622 b 351 683 294 661 315 703 b 371 563 379 668 372 589 z m 383 533 l 399 547 b 365 708 400 590 413 682 b 304 707 351 715 326 719 b 265 615 268 685 265 651 l 103 615 b 154 817 103 672 99 782 b 510 819 210 853 447 851 b 571 628 576 785 571 690 l 571 208 b 519 29 571 154 576 58 b 146 26 475 6 197 -3 b 93 222 89 58 93 167 l 93 331 b 154 519 93 392 89 488 b 383 533 218 550 340 539 z m 294 331 b 331 382 297 360 306 376 l 332 382 b 364 372 342 385 356 382 b 368 176 374 343 372 203 b 306 161 363 156 321 149 b 294 331 288 176 293 310 z m 267 333 b 289 139 264 299 257 167 b 388 154 313 118 369 125 b 393 372 404 182 401 335 b 325 410 388 401 354 415 b 267 333 281 400 269 365 z "},"à":{"ha":658,"x_min":0,"x_max":0,"o":"m 476 960 b 290 1111 419 1013 360 1075 b 193 1082 251 1132 214 1125 b 190 1021 179 1061 182 1038 b 464 936 221 964 411 946 z m 424 971 b 217 1067 388 978 181 994 l 218 1069 b 251 1096 225 1083 238 1094 b 424 971 281 1101 400 992 z m 371 563 b 143 544 319 568 207 575 b 65 331 63 506 65 406 l 65 222 b 132 1 65 154 61 42 b 533 4 193 -33 481 -22 b 599 208 604 40 599 142 l 599 628 b 524 844 599 703 601 804 b 140 839 453 882 206 881 b 75 601 69 793 75 674 l 89 588 l 279 588 l 293 601 b 293 632 293 613 293 622 b 351 683 294 661 315 703 b 371 563 379 668 372 589 z m 383 533 l 399 547 b 365 708 400 590 413 682 b 304 707 351 715 326 719 b 265 615 268 685 265 651 l 103 615 b 154 817 103 672 99 782 b 510 819 210 853 447 851 b 571 628 576 785 571 690 l 571 208 b 519 29 571 154 576 58 b 146 26 475 6 197 -3 b 93 222 89 58 93 167 l 93 331 b 154 519 93 392 89 488 b 383 533 218 550 340 539 z m 294 331 b 331 382 297 360 306 376 l 332 382 b 364 372 342 385 356 382 b 368 176 374 343 372 203 b 306 161 363 156 321 149 b 294 331 288 176 293 310 z m 267 333 b 289 139 264 299 257 167 b 388 154 313 118 369 125 b 393 372 404 182 401 335 b 325 410 388 401 354 415 b 267 333 281 400 269 365 z "},"å":{"ha":658,"x_min":0,"x_max":0,"o":"m 308 1104 b 247 1013 265 1090 242 1053 b 374 947 256 951 319 911 b 308 1104 464 996 404 1138 z m 317 1079 b 360 972 382 1101 419 1007 l 358 971 b 317 1079 292 931 229 1050 z m 308 1011 b 317 1043 304 1021 303 1032 b 353 1004 339 1063 372 1028 b 331 996 350 1001 339 994 b 308 1011 322 997 313 1003 z m 283 1000 b 328 968 293 981 311 969 b 375 988 347 967 367 978 b 346 1075 401 1018 383 1064 b 283 1000 303 1088 263 1040 z m 371 563 b 143 544 319 568 207 575 b 65 331 63 506 65 406 l 65 222 b 132 1 65 154 61 42 b 533 4 193 -33 481 -22 b 599 208 604 40 599 142 l 599 628 b 524 844 599 703 601 804 b 140 839 453 882 206 881 b 75 601 69 793 75 674 l 89 588 l 279 588 l 293 601 b 293 632 293 613 293 622 b 351 683 294 661 315 703 b 371 563 379 668 372 589 z m 383 533 l 399 547 b 365 708 400 590 413 682 b 304 707 351 715 326 719 b 265 615 268 685 265 651 l 103 615 b 154 817 103 672 99 782 b 510 819 210 853 447 851 b 571 628 576 785 571 690 l 571 208 b 519 29 571 154 576 58 b 146 26 475 6 197 -3 b 93 222 89 58 93 167 l 93 331 b 154 519 93 392 89 488 b 383 533 218 550 340 539 z m 294 331 b 331 382 297 360 306 376 l 332 382 b 364 372 342 385 356 382 b 368 176 374 343 372 203 b 306 161 363 156 321 149 b 294 331 288 176 293 310 z m 267 333 b 289 139 264 299 257 167 b 388 154 313 118 369 125 b 393 372 404 182 401 335 b 325 410 388 401 354 415 b 267 333 281 400 269 365 z "},"ã":{"ha":658,"x_min":0,"x_max":0,"o":"m 361 1065 b 140 972 251 1110 200 1072 l 160 953 b 371 936 235 1000 294 939 b 525 1047 450 933 486 961 l 506 1064 b 361 1065 438 1021 421 1042 z m 351 1040 b 479 1019 397 1022 425 999 b 189 996 401 890 285 1021 b 351 1040 235 1063 282 1068 z m 371 563 b 143 544 319 568 207 575 b 65 331 63 506 65 406 l 65 222 b 132 1 65 154 61 42 b 533 4 193 -33 481 -22 b 599 208 604 40 599 142 l 599 628 b 524 844 599 703 601 804 b 140 839 453 882 206 881 b 75 601 69 793 75 674 l 89 588 l 279 588 l 293 601 b 293 632 293 613 293 622 b 351 683 294 661 315 703 b 371 563 379 668 372 589 z m 383 533 l 399 547 b 365 708 400 590 413 682 b 304 707 351 715 326 719 b 265 615 268 685 265 651 l 103 615 b 154 817 103 672 99 782 b 510 819 210 853 447 851 b 571 628 576 785 571 690 l 571 208 b 519 29 571 154 576 58 b 146 26 475 6 197 -3 b 93 222 89 58 93 167 l 93 331 b 154 519 93 392 89 488 b 383 533 218 550 340 539 z m 294 331 b 331 382 297 360 306 376 l 332 382 b 364 372 342 385 356 382 b 368 176 374 343 372 203 b 306 161 363 156 321 149 b 294 331 288 176 293 310 z m 267 333 b 289 139 264 299 257 167 b 388 154 313 118 369 125 b 393 372 404 182 401 335 b 325 410 388 401 354 415 b 267 333 281 400 269 365 z "},"ç":{"ha":456,"x_min":0,"x_max":0,"o":"m 196 1169 l 196 1071 b 118 1057 164 1069 136 1065 l 117 1057 b 75 944 74 1036 75 985 l 75 694 b 196 551 75 590 94 557 l 196 424 l 210 410 l 260 410 l 274 424 l 274 549 b 396 703 400 556 396 604 l 396 760 l 382 774 l 265 774 l 251 760 l 251 753 b 243 671 251 742 254 678 b 219 743 213 650 219 738 l 219 882 b 226 953 219 894 215 943 b 244 954 232 956 240 956 b 251 881 254 946 251 892 l 251 849 l 265 835 l 381 835 l 394 849 l 394 932 b 272 1069 394 1050 379 1063 l 272 1169 l 258 1183 l 210 1183 z m 279 746 l 368 746 l 368 703 b 346 594 368 674 375 611 b 260 576 333 588 299 576 l 246 563 l 246 438 l 224 438 l 224 564 l 210 578 b 103 694 114 582 103 599 l 103 944 b 129 1032 103 972 100 1015 b 210 1043 146 1038 175 1043 l 224 1057 l 224 1156 l 244 1156 l 244 1057 l 257 1043 b 367 932 361 1036 367 1038 l 367 863 l 279 863 l 279 881 b 256 981 279 907 286 965 l 253 982 b 214 978 246 983 225 983 l 211 976 b 192 882 186 957 192 910 l 192 743 b 193 686 192 718 192 700 b 260 649 197 654 228 628 b 279 746 285 665 279 719 z "},"é":{"ha":667,"x_min":0,"x_max":0,"o":"m 217 936 b 397 990 274 953 340 968 b 476 1107 443 1007 515 1046 b 418 1147 464 1132 440 1144 b 329 1097 390 1150 356 1122 b 203 960 285 1056 243 1006 z m 256 976 b 415 1119 283 1007 379 1122 b 451 1094 429 1118 443 1110 l 453 1092 b 454 1057 457 1083 461 1072 b 256 976 438 1022 296 988 z m 606 365 l 606 633 b 551 842 606 699 617 800 b 144 849 485 883 203 878 b 75 653 69 811 75 724 l 75 203 b 149 7 75 133 79 47 b 542 3 213 -29 479 -31 b 600 67 572 19 592 33 b 606 218 610 106 606 178 l 606 256 l 606 290 l 592 304 l 388 304 l 374 290 l 374 244 b 374 211 374 233 374 222 b 372 186 374 203 374 193 b 324 160 369 161 340 147 b 311 303 304 174 311 288 l 311 351 l 592 351 z m 578 379 l 297 379 l 283 365 l 283 303 b 285 190 283 250 282 214 b 367 136 289 138 315 118 b 401 211 400 149 401 183 b 401 244 401 222 401 233 l 401 276 l 578 276 l 578 256 l 578 218 b 572 74 578 182 581 108 b 163 32 547 -31 203 8 b 103 203 104 65 103 144 l 103 653 b 158 824 103 710 96 793 b 538 817 208 849 479 853 b 578 633 589 785 578 685 z m 383 626 l 383 535 l 307 535 l 307 624 b 310 665 307 638 306 651 b 367 689 315 693 342 704 b 383 626 388 678 383 646 z m 411 626 b 407 678 411 647 411 664 b 315 717 397 717 350 735 b 279 624 278 696 279 660 l 279 521 l 293 507 l 397 507 l 411 521 z "},"ê":{"ha":667,"x_min":0,"x_max":0,"o":"m 324 1097 l 140 960 l 151 935 b 336 979 213 950 274 969 l 340 981 b 396 967 340 981 389 969 b 531 935 424 957 510 940 l 542 960 l 340 1097 z m 332 1069 l 463 979 b 404 994 451 983 424 988 b 375 1001 404 994 389 997 l 354 1006 l 346 1007 b 340 1008 343 1008 340 1008 b 336 1008 339 1008 338 1008 l 331 1007 b 210 978 290 997 250 988 z m 606 365 l 606 633 b 551 842 606 699 617 800 b 144 849 485 883 203 878 b 75 653 69 811 75 724 l 75 203 b 149 7 75 133 79 47 b 542 3 213 -29 479 -31 b 600 67 572 19 592 33 b 606 218 610 106 606 178 l 606 256 l 606 290 l 592 304 l 388 304 l 374 290 l 374 244 b 374 211 374 233 374 222 b 372 186 374 203 374 193 b 324 160 369 161 340 147 b 311 303 304 174 311 288 l 311 351 l 592 351 z m 578 379 l 297 379 l 283 365 l 283 303 b 285 190 283 250 282 214 b 367 136 289 138 315 118 b 401 211 400 149 401 183 b 401 244 401 222 401 233 l 401 276 l 578 276 l 578 256 l 578 218 b 572 74 578 182 581 108 b 163 32 547 -31 203 8 b 103 203 104 65 103 144 l 103 653 b 158 824 103 710 96 793 b 538 817 208 849 479 853 b 578 633 589 785 578 685 z m 383 626 l 383 535 l 307 535 l 307 624 b 310 665 307 638 306 651 b 367 689 315 693 342 704 b 383 626 388 678 383 646 z m 411 626 b 407 678 411 647 411 664 b 315 717 397 717 350 735 b 279 624 278 696 279 660 l 279 521 l 293 507 l 397 507 l 411 521 z "},"ë":{"ha":667,"x_min":0,"x_max":0,"o":"m 224 1086 b 221 940 153 1058 158 969 l 222 940 b 289 949 244 929 269 936 b 224 1086 371 1001 304 1118 z m 235 1061 b 275 1056 247 1065 261 1065 b 233 965 329 1018 281 949 b 201 1008 218 974 204 989 b 235 1061 199 1026 208 1050 z m 403 1086 b 407 940 335 1053 342 967 l 408 939 b 469 1083 482 910 560 1021 b 403 1086 444 1096 421 1094 z m 414 1061 b 456 1058 424 1067 440 1069 b 418 965 518 1017 463 953 b 414 1061 376 988 368 1038 z m 606 365 l 606 633 b 551 842 606 699 617 800 b 144 849 485 883 203 878 b 75 653 69 811 75 724 l 75 203 b 149 7 75 133 79 47 b 542 3 213 -29 479 -31 b 600 67 572 19 592 33 b 606 218 610 106 606 178 l 606 256 l 606 290 l 592 304 l 388 304 l 374 290 l 374 244 b 374 211 374 233 374 222 b 372 186 374 203 374 193 b 324 160 369 161 340 147 b 311 303 304 174 311 288 l 311 351 l 592 351 z m 578 379 l 297 379 l 283 365 l 283 303 b 285 190 283 250 282 214 b 367 136 289 138 315 118 b 401 211 400 149 401 183 b 401 244 401 222 401 233 l 401 276 l 578 276 l 578 256 l 578 218 b 572 74 578 182 581 108 b 163 32 547 -31 203 8 b 103 203 104 65 103 144 l 103 653 b 158 824 103 710 96 793 b 538 817 208 849 479 853 b 578 633 589 785 578 685 z m 383 626 l 383 535 l 307 535 l 307 624 b 310 665 307 638 306 651 b 367 689 315 693 342 704 b 383 626 388 678 383 646 z m 411 626 b 407 678 411 647 411 664 b 315 717 397 717 350 735 b 279 624 278 696 279 660 l 279 521 l 293 507 l 397 507 l 411 521 z "},"è":{"ha":667,"x_min":0,"x_max":0,"o":"m 486 960 b 254 1124 451 992 307 1132 b 199 1022 213 1117 179 1061 b 474 936 228 964 421 944 z m 432 971 b 224 1033 390 978 243 996 b 260 1096 213 1057 236 1092 b 432 971 290 1101 408 993 z m 606 365 l 606 633 b 551 842 606 699 617 800 b 144 849 485 883 203 878 b 75 653 69 811 75 724 l 75 203 b 149 7 75 133 79 47 b 542 3 213 -29 479 -31 b 600 67 572 19 592 33 b 606 218 610 106 606 178 l 606 256 l 606 290 l 592 304 l 388 304 l 374 290 l 374 244 b 374 211 374 233 374 222 b 372 186 374 203 374 193 b 324 160 369 161 340 147 b 311 303 304 174 311 288 l 311 351 l 592 351 z m 578 379 l 297 379 l 283 365 l 283 303 b 285 190 283 250 282 214 b 367 136 289 138 315 118 b 401 211 400 149 401 183 b 401 244 401 222 401 233 l 401 276 l 578 276 l 578 256 l 578 218 b 572 74 578 182 581 108 b 163 32 547 -31 203 8 b 103 203 104 65 103 144 l 103 653 b 158 824 103 710 96 793 b 538 817 208 849 479 853 b 578 633 589 785 578 685 z m 383 626 l 383 535 l 307 535 l 307 624 b 310 665 307 638 306 651 b 367 689 315 693 342 704 b 383 626 388 678 383 646 z m 411 626 b 407 678 411 647 411 664 b 315 717 397 717 350 735 b 279 624 278 696 279 660 l 279 521 l 293 507 l 397 507 l 411 521 z "},"í":{"ha":358,"x_min":0,"x_max":0,"o":"m 63 914 l 158 942 b 324 1024 201 954 304 979 b 322 1085 333 1046 332 1067 b 263 1125 307 1110 285 1122 b 49 938 204 1131 85 978 z m 100 954 b 260 1097 128 986 222 1101 b 297 1071 274 1096 289 1088 b 299 1035 303 1063 306 1051 b 100 954 283 1000 139 965 z m 75 843 l 75 0 l 89 -14 l 283 -14 l 297 0 l 297 843 l 283 857 l 89 857 z m 103 829 l 269 829 l 269 14 l 103 14 z "},"î":{"ha":358,"x_min":0,"x_max":0,"o":"m 168 1075 l -14 938 l -3 913 b 182 957 58 928 119 949 l 186 958 b 242 944 186 958 235 947 b 376 913 275 933 347 919 l 388 938 l 185 1075 z m 176 1047 l 308 957 b 250 972 289 963 269 965 b 221 979 250 972 235 975 l 200 983 l 192 985 b 186 986 189 986 186 986 b 182 986 185 986 183 986 l 176 985 b 56 956 136 975 96 965 z m 75 843 l 75 0 l 89 -14 l 283 -14 l 297 0 l 297 843 l 283 857 l 89 857 z m 103 829 l 269 829 l 269 14 l 103 14 z "},"ï":{"ha":358,"x_min":0,"x_max":0,"o":"m 69 1064 b 65 918 0 1035 4 949 l 67 918 b 171 989 114 894 171 938 b 69 1064 176 1042 118 1083 z m 81 1039 b 143 992 108 1050 143 1024 l 143 990 b 78 943 143 958 110 932 b 81 1039 40 967 32 1018 z m 249 1064 b 251 918 181 1031 185 944 l 253 917 b 321 929 279 907 303 917 b 317 1060 372 965 364 1029 l 315 1061 b 249 1064 292 1076 267 1072 z m 260 1039 b 301 1038 269 1044 285 1046 b 328 994 315 1025 328 1010 b 304 951 328 981 324 964 b 263 943 294 943 279 939 b 260 1039 219 965 214 1015 z m 75 843 l 75 0 l 89 -14 l 283 -14 l 297 0 l 297 843 l 283 857 l 89 857 z m 103 829 l 269 829 l 269 14 l 103 14 z "},"ì":{"ha":358,"x_min":0,"x_max":0,"o":"m 329 938 b 144 1089 272 990 214 1053 b 47 1060 106 1110 69 1104 b 44 999 33 1039 36 1015 b 317 914 75 942 264 924 z m 276 949 b 71 1044 240 956 35 972 l 72 1047 b 106 1074 79 1061 92 1071 b 276 949 136 1078 253 971 z m 75 843 l 75 0 l 89 -14 l 283 -14 l 297 0 l 297 843 l 283 857 l 89 857 z m 103 829 l 269 829 l 269 14 l 103 14 z "},"ñ":{"ha":667,"x_min":0,"x_max":0,"o":"m 365 1054 b 299 1071 347 1061 326 1068 b 144 961 222 1076 189 1035 l 164 942 b 375 926 242 990 296 929 b 531 1038 454 924 490 951 l 510 1054 b 365 1054 443 1010 426 1029 z m 356 1029 b 485 1010 403 1010 429 988 b 193 986 404 881 292 1011 b 356 1029 239 1051 288 1056 z m 606 0 l 606 649 b 540 842 606 751 603 804 b 143 849 472 882 190 876 b 81 768 107 826 88 804 b 75 631 71 725 75 675 l 75 0 l 89 -14 l 290 -14 l 304 0 l 304 549 b 319 681 304 571 297 664 b 356 681 324 683 350 683 b 376 644 368 675 374 665 b 378 540 379 621 378 588 l 378 0 l 392 -14 l 592 -14 z m 578 14 l 406 14 l 406 540 b 404 649 406 590 407 624 b 367 706 400 675 390 693 b 303 703 356 711 318 714 b 276 549 268 676 276 586 l 276 14 l 103 14 l 103 631 b 103 710 103 663 103 688 b 157 824 104 763 106 794 b 526 817 196 847 467 853 b 578 649 574 789 578 754 z "},"ó":{"ha":664,"x_min":0,"x_max":0,"o":"m 214 932 l 311 960 b 476 1042 356 972 456 997 b 415 1143 493 1088 465 1139 b 326 1093 388 1146 353 1118 b 200 956 282 1051 240 1001 z m 253 972 b 413 1115 281 1003 376 1119 b 451 1053 443 1113 461 1081 b 253 972 433 1017 293 985 z m 256 868 b 75 626 78 847 75 771 l 75 219 b 144 4 75 140 64 51 b 528 6 206 -32 469 -26 b 596 75 564 26 586 42 b 603 225 607 114 603 185 l 603 622 b 550 831 603 751 600 786 b 256 868 501 875 321 875 z m 258 840 b 392 842 275 842 332 844 b 575 622 565 832 575 797 l 575 225 b 575 133 575 186 575 157 b 514 31 574 75 569 61 b 158 29 464 1 211 -1 b 103 219 92 68 103 153 l 103 626 b 258 840 103 756 99 822 z m 311 674 b 358 683 322 688 349 689 b 376 553 382 671 376 575 l 376 297 b 358 167 376 275 386 181 b 319 168 350 163 325 164 b 304 296 299 181 304 275 l 304 547 b 311 674 304 557 301 661 z m 289 690 b 276 547 271 668 276 571 l 276 296 b 306 143 276 258 268 167 b 369 142 319 135 356 135 b 404 297 417 165 404 254 l 404 553 b 369 708 404 592 414 686 b 289 690 351 717 311 718 z "},"ô":{"ha":664,"x_min":0,"x_max":0,"o":"m 321 1092 l 138 956 l 149 931 b 333 975 210 946 271 965 l 338 976 b 393 961 338 976 392 963 b 528 931 438 950 483 942 l 539 956 l 338 1092 z m 329 1064 l 460 976 b 401 989 447 979 421 985 l 372 996 l 351 1001 l 344 1003 b 338 1004 340 1004 338 1004 b 333 1004 336 1004 335 1004 l 328 1003 b 208 974 288 993 249 983 z m 256 868 b 75 626 78 847 75 771 l 75 219 b 144 4 75 140 64 51 b 528 6 206 -32 469 -26 b 596 75 564 26 586 42 b 603 225 607 114 603 185 l 603 622 b 550 831 603 751 600 786 b 256 868 501 875 321 875 z m 258 840 b 392 842 275 842 332 844 b 575 622 565 832 575 797 l 575 225 b 575 133 575 186 575 157 b 514 31 574 75 569 61 b 158 29 464 1 211 -1 b 103 219 92 68 103 153 l 103 626 b 258 840 103 756 99 822 z m 311 674 b 358 683 322 688 349 689 b 376 553 382 671 376 575 l 376 297 b 358 167 376 275 386 181 b 319 168 350 163 325 164 b 304 296 299 181 304 275 l 304 547 b 311 674 304 557 301 661 z m 289 690 b 276 547 271 668 276 571 l 276 296 b 306 143 276 258 268 167 b 369 142 319 135 356 135 b 404 297 417 165 404 254 l 404 553 b 369 708 404 592 414 686 b 289 690 351 717 311 718 z "},"ö":{"ha":664,"x_min":0,"x_max":0,"o":"m 221 1082 b 218 936 150 1054 156 965 l 219 936 b 286 942 242 925 265 931 b 324 1008 313 961 322 986 b 221 1082 325 1058 269 1101 z m 232 1057 b 272 1050 243 1061 256 1061 b 272 967 306 1028 303 988 b 231 961 257 958 243 957 b 199 1004 215 969 201 983 b 232 1057 196 1022 206 1046 z m 400 1082 b 403 936 332 1049 336 961 l 404 935 b 472 947 431 925 454 935 b 467 1079 524 982 514 1046 b 400 1082 442 1092 418 1090 z m 411 1057 b 453 1054 421 1063 436 1065 b 456 969 483 1035 492 993 b 414 961 446 961 431 957 b 411 1057 371 982 367 1035 z m 256 868 b 75 626 78 847 75 771 l 75 219 b 144 4 75 140 64 51 b 528 6 206 -32 469 -26 b 596 75 564 26 586 42 b 603 225 607 114 603 185 l 603 622 b 550 831 603 751 600 786 b 256 868 501 875 321 875 z m 258 840 b 392 842 275 842 332 844 b 575 622 565 832 575 797 l 575 225 b 575 133 575 186 575 157 b 514 31 574 75 569 61 b 158 29 464 1 211 -1 b 103 219 92 68 103 153 l 103 626 b 258 840 103 756 99 822 z m 311 674 b 358 683 322 688 349 689 b 376 553 382 671 376 575 l 376 297 b 358 167 376 275 386 181 b 319 168 350 163 325 164 b 304 296 299 181 304 275 l 304 547 b 311 674 304 557 301 661 z m 289 690 b 276 547 271 668 276 571 l 276 296 b 306 143 276 258 268 167 b 369 142 319 135 356 135 b 404 297 417 165 404 254 l 404 553 b 369 708 404 592 414 686 b 289 690 351 717 311 718 z "},"ò":{"ha":664,"x_min":0,"x_max":0,"o":"m 482 956 b 296 1107 425 1007 364 1071 b 199 1078 257 1128 221 1121 b 196 1018 188 1056 188 1033 b 469 932 225 960 417 942 z m 428 967 l 375 976 b 224 1064 340 983 186 1000 b 257 1092 231 1079 243 1089 b 428 967 286 1097 406 988 z m 256 868 b 75 626 78 847 75 771 l 75 219 b 144 4 75 140 64 51 b 528 6 206 -32 469 -26 b 596 75 564 26 586 42 b 603 225 607 114 603 185 l 603 622 b 550 831 603 751 600 786 b 256 868 501 875 321 875 z m 258 840 b 392 842 275 842 332 844 b 575 622 565 832 575 797 l 575 225 b 575 133 575 186 575 157 b 514 31 574 75 569 61 b 158 29 464 1 211 -1 b 103 219 92 68 103 153 l 103 626 b 258 840 103 756 99 822 z m 311 674 b 358 683 322 688 349 689 b 376 553 382 671 376 575 l 376 297 b 358 167 376 275 386 181 b 319 168 350 163 325 164 b 304 296 299 181 304 275 l 304 547 b 311 674 304 557 301 661 z m 289 690 b 276 547 271 668 276 571 l 276 296 b 306 143 276 258 268 167 b 369 142 319 135 356 135 b 404 297 417 165 404 254 l 404 553 b 369 708 404 592 414 686 b 289 690 351 717 311 718 z "},"õ":{"ha":664,"x_min":0,"x_max":0,"o":"m 367 1061 b 300 1078 349 1068 328 1075 b 147 968 224 1083 190 1040 l 167 949 b 376 932 243 996 299 935 b 532 1043 456 929 492 957 l 513 1060 b 367 1061 444 1017 428 1036 z m 357 1036 b 486 1015 404 1017 431 994 b 196 992 406 886 292 1017 b 357 1036 240 1058 289 1064 z m 256 868 b 75 626 78 847 75 771 l 75 219 b 144 4 75 140 64 51 b 528 6 206 -32 469 -26 b 596 75 564 26 586 42 b 603 225 607 114 603 185 l 603 622 b 550 831 603 751 600 786 b 256 868 501 875 321 875 z m 258 840 b 392 842 275 842 332 844 b 575 622 565 832 575 797 l 575 225 b 575 133 575 186 575 157 b 514 31 574 75 569 61 b 158 29 464 1 211 -1 b 103 219 92 68 103 153 l 103 626 b 258 840 103 756 99 822 z m 311 674 b 358 683 322 688 349 689 b 376 553 382 671 376 575 l 376 297 b 358 167 376 275 386 181 b 319 168 350 163 325 164 b 304 296 299 181 304 275 l 304 547 b 311 674 304 557 301 661 z m 289 690 b 276 547 271 668 276 571 l 276 296 b 306 143 276 258 268 167 b 369 142 319 135 356 135 b 404 297 417 165 404 254 l 404 553 b 369 708 404 592 414 686 b 289 690 351 717 311 718 z "},"ú":{"ha":661,"x_min":0,"x_max":0,"o":"m 213 908 l 308 936 b 475 1018 353 949 454 974 b 369 1106 499 1085 432 1146 b 199 932 315 1072 242 979 z m 251 949 b 411 1092 275 975 375 1096 b 450 1029 442 1088 460 1057 b 251 949 432 994 292 961 z m 289 857 l 89 857 l 75 843 l 75 224 b 143 4 75 149 67 50 b 539 6 203 -31 478 -29 b 601 224 615 50 601 149 l 601 843 l 588 857 l 390 857 l 376 843 l 376 310 b 357 175 376 289 385 190 l 356 174 b 321 175 347 171 325 171 b 303 311 293 194 303 285 l 303 843 z m 275 829 l 275 311 b 304 153 275 268 263 182 b 369 150 321 142 353 142 b 404 310 415 174 404 269 l 404 829 l 574 829 l 574 224 b 574 150 574 196 574 172 b 525 31 574 103 571 57 b 157 29 472 0 208 -1 b 103 224 94 65 103 161 l 103 829 z "},"û":{"ha":661,"x_min":0,"x_max":0,"o":"m 319 1068 l 136 932 l 147 907 b 332 951 208 922 269 943 l 336 953 b 392 938 336 953 390 939 b 526 907 436 926 482 918 l 538 932 l 336 1068 z m 328 1040 l 458 953 b 400 965 446 956 419 961 l 371 972 l 350 978 l 343 979 b 336 981 339 981 336 981 b 332 981 335 981 333 981 l 326 979 b 207 950 286 969 247 960 z m 289 857 l 89 857 l 75 843 l 75 224 b 143 4 75 149 67 50 b 539 6 203 -31 478 -29 b 601 224 615 50 601 149 l 601 843 l 588 857 l 390 857 l 376 843 l 376 310 b 357 175 376 289 385 190 l 356 174 b 321 175 347 171 325 171 b 303 311 293 194 303 285 l 303 843 z m 275 829 l 275 311 b 304 153 275 268 263 182 b 369 150 321 142 353 142 b 404 310 415 174 404 269 l 404 829 l 574 829 l 574 224 b 574 150 574 196 574 172 b 525 31 574 103 571 57 b 157 29 472 0 208 -1 b 103 224 94 65 103 161 l 103 829 z "},"ü":{"ha":661,"x_min":0,"x_max":0,"o":"m 219 1058 b 285 918 117 1017 186 865 b 322 985 311 938 321 963 b 219 1058 324 1035 267 1078 z m 231 1033 b 271 1026 240 1038 254 1038 b 271 943 304 1004 301 964 b 229 938 256 935 240 933 b 197 979 215 944 201 958 b 231 1033 193 999 204 1022 z m 399 1058 b 401 913 331 1025 335 938 l 403 911 b 465 1056 485 881 550 996 b 399 1058 440 1068 417 1067 z m 410 1033 b 451 1031 419 1039 435 1042 b 413 938 508 993 465 922 b 410 1033 369 958 365 1011 z m 289 857 l 89 857 l 75 843 l 75 224 b 143 4 75 149 67 50 b 539 6 203 -31 478 -29 b 601 224 615 50 601 149 l 601 843 l 588 857 l 390 857 l 376 843 l 376 310 b 357 175 376 289 385 190 l 356 174 b 321 175 347 171 325 171 b 303 311 293 194 303 285 l 303 843 z m 275 829 l 275 311 b 304 153 275 268 263 182 b 369 150 321 142 353 142 b 404 310 415 174 404 269 l 404 829 l 574 829 l 574 224 b 574 150 574 196 574 172 b 525 31 574 103 571 57 b 157 29 472 0 208 -1 b 103 224 94 65 103 161 l 103 829 z "},"ù":{"ha":661,"x_min":0,"x_max":0,"o":"m 481 932 b 294 1083 424 983 363 1047 b 197 1054 257 1103 218 1097 b 194 992 183 1032 186 1008 b 468 908 224 936 417 917 z m 426 943 b 219 1006 385 950 238 968 b 221 1039 215 1014 214 1028 l 222 1042 b 256 1067 229 1054 242 1064 b 426 943 286 1072 403 964 z m 289 857 l 89 857 l 75 843 l 75 224 b 143 4 75 149 67 50 b 539 6 203 -31 478 -29 b 601 224 615 50 601 149 l 601 843 l 588 857 l 390 857 l 376 843 l 376 310 b 357 175 376 289 385 190 l 356 174 b 321 175 347 171 325 171 b 303 311 293 194 303 285 l 303 843 z m 275 829 l 275 311 b 304 153 275 268 263 182 b 369 150 321 142 353 142 b 404 310 415 174 404 269 l 404 829 l 574 829 l 574 224 b 574 150 574 196 574 172 b 525 31 574 103 571 57 b 157 29 472 0 208 -1 b 103 224 94 65 103 161 l 103 829 z "},"ÿ":{"ha":668,"x_min":0,"x_max":0,"o":"m 222 1057 b 221 913 154 1031 156 940 b 290 1047 304 878 368 999 b 222 1057 268 1067 243 1065 z m 233 1032 b 274 1025 246 1036 258 1036 l 275 1024 b 232 938 322 990 283 915 b 233 1032 189 956 188 1014 z m 401 1057 b 407 913 336 1025 340 936 b 510 988 457 894 510 935 l 510 989 b 401 1057 510 1039 449 1081 z m 413 1032 b 482 986 443 1047 478 1017 b 457 943 482 974 476 957 b 383 975 428 922 392 943 b 413 1032 379 994 388 1019 z m 75 843 l 75 814 l 75 189 b 117 14 75 135 68 53 b 368 -3 165 -24 304 -15 b 351 -97 369 -29 374 -78 b 103 -71 315 -129 147 -86 l 85 -83 l 85 -235 l 93 -247 b 543 -261 219 -296 451 -322 b 608 -103 597 -225 608 -162 b 607 -61 608 -86 607 -72 l 607 843 l 593 857 l 385 857 l 371 843 l 371 308 b 353 172 371 285 378 189 b 322 171 339 164 328 168 l 319 172 b 304 311 294 185 304 293 l 304 843 l 290 857 l 89 857 z m 103 829 l 276 829 l 276 311 b 278 200 276 258 275 224 b 307 147 281 175 288 158 b 367 150 321 138 344 136 b 399 308 408 176 399 268 l 399 829 l 579 829 l 579 -61 b 581 -103 579 -72 581 -86 b 526 -239 581 -153 572 -208 b 113 -225 450 -289 239 -271 l 113 -103 b 226 -129 140 -111 183 -122 b 396 14 386 -156 400 -117 l 378 28 b 133 36 325 14 175 3 b 103 189 96 65 103 147 l 103 814 z "},"∞":{"ha":668,"x_min":0,"x_max":0,"o":"m 215 907 l 313 935 b 478 1017 356 947 458 972 b 417 1117 497 1061 464 1111 b 328 1068 389 1119 354 1093 b 201 931 283 1025 242 975 z m 254 947 b 414 1089 281 978 378 1093 b 453 1028 442 1086 465 1056 b 254 947 438 993 294 958 z m 75 843 l 75 814 l 75 189 b 117 14 75 135 68 53 b 368 -3 165 -24 304 -15 b 351 -97 369 -29 374 -78 b 103 -71 315 -129 147 -86 l 85 -83 l 85 -235 l 93 -247 b 543 -261 219 -296 451 -322 b 608 -103 597 -225 608 -162 b 607 -61 608 -86 607 -72 l 607 843 l 593 857 l 385 857 l 371 843 l 371 308 b 353 172 371 285 378 189 b 322 171 339 164 328 168 l 319 172 b 304 311 294 185 304 293 l 304 843 l 290 857 l 89 857 z m 103 829 l 276 829 l 276 311 b 278 200 276 258 275 224 b 307 147 281 175 288 158 b 367 150 321 138 344 136 b 399 308 408 176 399 268 l 399 829 l 579 829 l 579 -61 b 581 -103 579 -72 581 -86 b 526 -239 581 -153 572 -208 b 113 -225 450 -289 239 -271 l 113 -103 b 226 -129 140 -111 183 -122 b 396 14 386 -156 400 -117 l 378 28 b 133 36 325 14 175 3 b 103 189 96 65 103 147 l 103 814 z "},"∂":{"ha":658,"x_min":0,"x_max":0,"o":"m 379 1140 l 379 863 b 129 847 311 885 183 888 b 75 674 71 806 75 736 l 75 183 b 131 8 75 119 74 51 b 393 8 168 -19 306 -53 l 393 0 l 407 -14 l 563 -14 l 585 -14 l 599 0 l 599 1140 l 585 1154 l 393 1154 z m 407 1126 l 571 1126 l 571 14 l 563 14 l 421 14 l 421 39 l 397 49 b 147 31 326 -26 182 6 b 103 183 99 67 103 131 l 103 674 b 146 825 103 725 97 790 b 388 831 194 860 332 856 l 407 843 z m 304 651 b 317 689 306 674 311 683 b 351 692 324 694 343 696 b 372 557 382 676 372 582 l 372 303 b 371 193 372 268 376 228 b 317 164 367 172 339 150 b 301 297 292 179 301 276 l 301 556 b 304 651 301 597 301 628 z m 276 654 b 274 556 274 631 274 599 l 274 297 b 275 192 274 246 272 214 b 397 189 283 107 386 121 b 400 303 403 225 400 267 l 400 557 b 365 717 400 600 413 693 b 300 711 347 726 315 724 b 276 654 285 697 278 678 z "},"∏":{"ha":672,"x_min":0,"x_max":0,"o":"m 610 228 b 611 274 611 240 611 256 l 611 625 b 551 829 611 697 625 785 b 140 832 494 863 193 861 b 75 625 63 789 75 699 l 75 318 b 81 219 75 301 74 261 b 413 14 128 -40 408 176 b 392 -129 413 -10 419 -117 b 319 -132 381 -133 326 -136 b 300 -103 307 -126 303 -121 b 297 13 294 -65 297 -25 l 297 36 l 283 50 l 88 50 l 74 36 l 74 -57 b 146 -290 74 -133 60 -251 b 585 -282 217 -322 501 -335 b 642 60 661 -235 653 -18 b 574 146 633 117 611 133 b 610 228 600 168 608 194 z m 583 229 b 535 153 581 190 569 174 l 538 126 b 614 57 589 114 606 108 b 571 -260 624 -8 632 -221 b 157 -265 497 -307 222 -294 b 101 -57 88 -233 101 -119 l 101 22 l 269 22 l 269 13 b 269 -61 269 -18 269 -42 b 306 -157 269 -97 268 -136 b 403 -154 324 -167 388 -161 b 440 14 451 -133 442 -26 b 278 107 438 122 351 110 b 103 318 119 103 103 181 l 103 625 b 154 807 103 686 90 772 b 538 804 199 832 489 833 b 583 625 597 769 583 683 l 583 274 b 583 229 583 257 583 242 z m 310 639 b 336 669 313 658 319 664 l 339 671 b 365 668 346 672 360 672 b 381 538 386 653 381 557 l 381 408 b 379 301 381 374 383 336 b 322 271 375 272 342 258 b 307 400 300 286 307 381 l 307 529 b 310 639 307 565 304 604 z m 282 644 b 279 529 275 607 279 567 l 279 400 b 281 303 279 358 278 326 b 406 299 290 208 396 228 b 408 408 411 333 408 372 l 408 538 b 382 690 408 574 417 665 b 324 694 369 700 339 703 b 282 644 299 686 286 671 z "},"π":{"ha":654,"x_min":0,"x_max":0,"o":"m 300 -24 b 590 64 381 -46 571 -51 b 594 188 597 104 594 147 l 594 646 b 513 847 594 721 599 815 b 281 824 447 872 343 868 l 281 828 l 267 842 l 89 842 l 75 828 l 75 -299 l 89 -312 l 286 -312 l 300 -299 z m 292 8 l 272 -4 l 272 -285 l 103 -285 l 103 814 l 253 814 l 253 793 l 278 783 b 501 822 324 836 435 847 b 567 646 574 794 567 707 l 567 188 b 564 69 567 149 571 107 b 292 8 547 -29 351 -14 z m 299 646 b 351 675 303 675 324 692 b 365 543 372 660 365 560 l 365 290 b 346 153 365 267 374 168 b 311 153 338 147 322 146 b 296 282 292 164 296 265 l 296 539 b 299 646 296 574 293 611 z m 271 650 b 268 539 265 614 268 575 l 268 282 b 297 128 268 247 260 150 b 360 128 317 117 342 118 b 393 290 404 154 393 250 l 393 543 b 392 649 393 596 394 628 b 271 650 383 728 282 731 z "},"∫":{"ha":660,"x_min":0,"x_max":0,"o":"m 289 1153 l 89 1153 l 75 1139 l 75 0 l 89 -14 l 264 -14 l 278 0 l 278 15 b 519 -4 346 -33 464 -28 b 600 189 613 35 600 108 l 600 654 b 538 850 600 725 611 807 b 303 864 483 881 368 892 l 303 1139 z m 275 1125 l 275 840 l 297 829 b 524 825 342 864 468 858 b 572 654 583 790 572 713 l 572 189 b 567 81 572 157 575 111 b 275 54 539 -21 328 -8 l 250 46 l 250 14 l 103 14 l 103 1125 z m 301 640 b 351 689 304 671 310 707 b 371 551 379 678 371 572 l 371 301 b 351 165 371 276 382 182 b 300 300 285 128 300 278 l 300 551 b 301 640 300 583 300 614 z m 274 642 b 272 551 271 615 272 583 l 272 300 b 274 199 272 254 271 221 b 365 140 279 150 317 114 b 399 301 413 167 399 257 l 399 551 b 363 714 399 592 411 694 b 296 707 333 726 310 718 b 274 642 279 693 275 667 z "},"Ω":{"ha":435,"x_min":0,"x_max":0,"o":"m 189 1138 l 189 1047 b 75 907 79 1042 75 996 l 75 881 b 108 756 75 836 68 785 b 183 740 128 744 160 742 b 242 701 236 739 242 753 b 242 682 242 694 242 688 b 233 657 242 674 243 661 l 231 654 b 221 654 229 653 222 653 l 217 657 b 210 682 208 661 210 675 l 210 722 l 196 736 l 89 736 l 75 722 l 75 689 b 190 543 75 589 75 549 l 190 425 l 204 411 l 251 411 l 265 425 l 265 543 b 378 621 318 547 367 563 b 354 843 386 667 392 811 b 221 863 319 874 258 850 b 213 885 213 868 213 876 b 219 933 213 893 211 929 b 233 935 221 935 232 935 b 242 886 247 928 243 899 l 256 871 l 360 871 l 374 885 b 261 1047 374 978 383 1043 l 261 1138 l 247 1151 l 203 1151 z m 217 1124 l 233 1124 l 233 1033 l 247 1019 b 333 997 279 1021 321 1013 b 346 899 347 979 346 922 l 271 899 b 269 924 271 907 271 915 b 206 958 265 954 235 974 b 185 885 182 946 185 907 b 208 838 185 864 188 847 l 210 838 b 335 821 239 824 314 840 b 350 626 361 799 357 661 b 315 582 346 603 340 593 b 253 571 308 579 274 569 l 238 557 l 238 439 l 218 439 l 218 557 l 204 571 b 114 593 181 571 132 575 b 103 689 100 608 103 671 l 103 708 l 182 708 l 182 682 b 203 633 182 663 183 643 b 249 633 215 622 236 622 b 269 682 267 644 269 663 b 269 701 269 688 269 694 b 269 717 269 707 269 711 b 125 778 269 800 174 750 b 103 881 96 800 103 850 l 103 907 b 203 1019 103 988 101 1019 l 217 1033 z "},"√":{"ha":669,"x_min":0,"x_max":0,"o":"m 292 850 l 89 850 l 75 836 l 75 192 b 122 7 75 129 65 49 b 344 -14 171 -29 314 -22 b 389 8 364 -8 376 -1 l 389 0 l 403 -14 l 594 -14 l 608 0 l 608 836 l 594 850 l 381 850 l 367 836 l 367 310 b 347 167 367 283 376 185 b 319 169 340 163 332 163 b 306 301 299 181 306 286 l 306 836 z m 278 822 l 278 301 b 306 144 278 267 267 167 b 361 142 326 133 346 135 b 394 310 407 171 394 265 l 394 822 l 581 822 l 581 14 l 417 14 l 417 39 l 393 49 b 336 14 372 31 363 21 b 139 29 308 6 176 1 b 103 192 93 63 103 142 l 103 822 z "},"∆":{"ha":364,"x_min":0,"x_max":0,"o":"m 289 1128 l 89 1128 l 75 1114 l 75 904 l 89 890 l 289 890 l 303 904 l 303 1114 z m 275 1100 l 275 918 l 103 918 l 103 1100 z m 75 840 l 75 60 b 53 -72 75 25 83 -46 b -79 -72 32 -92 -46 -87 l -99 -83 l -106 -214 l -97 -228 b 246 -218 -25 -258 168 -275 b 304 -25 307 -174 304 -92 l 304 840 l 290 854 l 89 854 z m 103 826 l 276 826 l 276 -25 b 229 -196 276 -81 281 -158 b -78 -206 165 -243 -3 -232 l -72 -104 b 72 -94 -29 -115 42 -121 b 103 60 113 -60 103 13 z "}," ":{"ha":335,"x_min":0,"x_max":0,"o":""}}}
